<svg id="svg" version="1.1" xmlns="http://www.w3.org/2000/svg" xmlns:xlink="http://www.w3.org/1999/xlink" width="400" height="294.59084604715673" viewBox="0, 0, 400,294.59084604715673"><g id="svgg"><path id="path0" d="M102.284 28.150 L 102.284 56.301 130.877 56.301 L 159.469 56.301 159.469 28.150 L 159.469 0.000 130.877 0.000 L 102.284 0.000 102.284 28.150 M259.396 0.737 C 259.396 1.465,259.425 1.474,261.901 1.474 L 264.407 1.474 264.407 8.106 L 264.407 14.738 265.438 14.738 L 266.470 14.738 266.470 8.106 L 266.470 1.474 268.976 1.474 C 271.452 1.474,271.481 1.465,271.481 0.737 L 271.481 0.000 265.438 0.000 L 259.396 0.000 259.396 0.737 M272.660 7.369 L 272.660 14.738 273.831 14.738 L 275.002 14.738 275.084 10.538 C 275.166 6.353,275.167 6.343,275.599 7.738 C 275.837 8.508,276.135 9.138,276.262 9.138 C 276.389 9.138,276.492 9.377,276.492 9.669 C 276.492 10.327,277.151 11.785,277.450 11.788 C 277.572 11.790,277.671 12.056,277.671 12.380 C 277.671 12.704,277.804 12.970,277.966 12.970 C 278.128 12.970,278.261 13.368,278.261 13.854 C 278.261 14.720,278.291 14.738,279.756 14.738 C 281.296 14.738,282.093 14.293,282.093 13.433 C 282.093 13.178,282.225 12.970,282.388 12.970 C 282.550 12.970,282.682 12.638,282.682 12.233 C 282.682 11.828,282.815 11.496,282.977 11.496 C 283.139 11.496,283.272 11.231,283.272 10.906 C 283.272 10.582,283.405 10.317,283.567 10.317 C 283.729 10.317,283.861 9.919,283.861 9.433 C 283.861 8.946,283.979 8.548,284.123 8.548 C 284.268 8.548,284.472 8.084,284.579 7.517 C 285.002 5.260,285.335 6.623,285.335 10.612 L 285.335 14.738 286.514 14.738 L 287.693 14.738 287.693 7.369 L 287.693 0.000 286.243 0.000 C 284.843 0.000,284.786 0.033,284.597 0.958 C 284.340 2.214,283.775 3.537,283.495 3.537 C 283.372 3.537,283.272 3.935,283.272 4.422 C 283.272 4.908,283.139 5.306,282.977 5.306 C 282.815 5.306,282.682 5.571,282.682 5.895 C 282.682 6.220,282.583 6.486,282.461 6.487 C 282.162 6.490,281.503 7.948,281.503 8.607 C 281.503 8.899,281.371 9.138,281.209 9.138 C 281.046 9.138,280.914 9.403,280.914 9.727 C 280.914 10.052,280.781 10.317,280.619 10.317 C 280.457 10.317,280.320 10.615,280.314 10.980 C 280.301 11.821,279.468 10.543,279.450 9.654 C 279.445 9.370,279.307 9.138,279.145 9.138 C 278.983 9.138,278.850 8.806,278.850 8.401 C 278.850 7.996,278.718 7.664,278.556 7.664 C 278.394 7.664,278.261 7.399,278.261 7.074 C 278.261 6.750,278.128 6.485,277.966 6.485 C 277.804 6.485,277.671 6.220,277.671 5.895 C 277.671 5.571,277.539 5.306,277.377 5.306 C 277.214 5.306,277.082 4.908,277.082 4.422 C 277.082 3.935,276.949 3.537,276.787 3.537 C 276.625 3.537,276.492 3.338,276.492 3.095 C 276.492 2.852,276.360 2.653,276.197 2.653 C 276.035 2.653,275.903 2.388,275.903 2.063 C 275.903 1.739,275.770 1.474,275.608 1.474 C 275.446 1.474,275.313 1.142,275.313 0.737 C 275.313 0.060,275.205 0.000,273.987 0.000 L 272.660 0.000 272.660 7.369 M342.520 1.032 C 342.520 1.599,342.388 2.063,342.225 2.063 C 342.063 2.063,341.931 2.785,341.931 3.667 C 341.931 4.549,341.812 5.344,341.667 5.434 C 341.522 5.524,341.309 6.659,341.194 7.957 C 341.079 9.255,340.866 10.317,340.721 10.317 C 340.576 10.317,340.457 10.773,340.457 11.331 C 340.457 11.889,340.324 12.427,340.162 12.528 C 340.000 12.628,339.867 13.166,339.867 13.724 C 339.867 14.282,339.735 14.738,339.573 14.738 C 339.410 14.738,339.278 15.195,339.278 15.753 C 339.278 16.311,339.145 16.849,338.983 16.949 C 338.821 17.049,338.688 17.455,338.688 17.851 C 338.688 18.247,338.556 18.570,338.394 18.570 C 338.231 18.570,338.099 18.968,338.099 19.455 C 338.099 19.941,337.966 20.339,337.804 20.339 C 337.642 20.339,337.509 20.663,337.509 21.059 C 337.509 21.454,337.386 21.854,337.235 21.947 C 337.084 22.041,336.870 22.844,336.759 23.733 C 336.648 24.623,336.440 25.350,336.296 25.350 C 336.153 25.350,336.035 25.682,336.035 26.087 C 336.035 26.492,335.903 26.824,335.741 26.824 C 335.578 26.824,335.446 27.222,335.446 27.708 C 335.446 28.195,335.313 28.592,335.151 28.592 C 334.989 28.592,334.856 28.858,334.856 29.182 C 334.856 29.506,334.724 29.772,334.562 29.772 C 334.399 29.772,334.267 30.037,334.267 30.361 C 334.267 30.685,334.134 30.951,333.972 30.951 C 333.810 30.951,333.677 31.282,333.677 31.688 C 333.677 32.093,333.545 32.424,333.382 32.424 C 333.220 32.424,333.088 32.690,333.088 33.014 C 333.088 33.338,332.955 33.604,332.793 33.604 C 332.631 33.604,332.498 33.861,332.498 34.176 C 332.498 34.490,332.377 34.823,332.229 34.914 C 332.081 35.006,331.870 35.610,331.761 36.258 C 331.652 36.906,331.441 37.436,331.293 37.436 C 331.145 37.436,331.024 37.701,331.024 38.025 C 331.024 38.349,330.892 38.615,330.730 38.615 C 330.567 38.615,330.435 38.880,330.435 39.204 C 330.435 39.528,330.302 39.794,330.140 39.794 C 329.978 39.794,329.845 39.993,329.845 40.236 C 329.845 40.479,329.713 40.678,329.550 40.678 C 329.388 40.678,329.256 40.914,329.256 41.202 C 329.256 41.491,328.990 41.918,328.666 42.152 C 328.342 42.386,328.077 42.813,328.077 43.101 C 328.077 43.390,327.959 43.626,327.815 43.626 C 327.671 43.626,327.466 44.090,327.359 44.657 C 327.253 45.225,327.039 45.689,326.884 45.689 C 326.729 45.689,326.603 45.925,326.603 46.213 C 326.603 46.502,326.338 46.929,326.013 47.163 C 325.689 47.397,325.424 47.824,325.424 48.112 C 325.424 48.401,325.291 48.637,325.129 48.637 C 324.967 48.637,324.834 48.870,324.834 49.155 C 324.834 49.441,324.569 49.840,324.245 50.042 C 323.920 50.245,323.655 50.608,323.655 50.850 C 323.655 51.092,323.532 51.290,323.382 51.290 C 323.231 51.290,322.874 51.820,322.588 52.469 C 322.302 53.117,321.961 53.648,321.830 53.648 C 321.699 53.648,321.592 53.904,321.592 54.217 C 321.592 54.531,321.326 54.871,321.002 54.974 C 320.678 55.077,320.413 55.364,320.413 55.613 C 320.413 55.861,320.015 56.436,319.528 56.890 C 319.042 57.345,318.644 57.868,318.644 58.053 C 318.644 58.238,318.312 58.747,317.907 59.185 C 317.502 59.622,317.170 60.090,317.170 60.226 C 317.170 60.362,316.640 60.983,315.991 61.606 C 315.343 62.230,314.812 62.885,314.812 63.062 C 314.812 63.240,314.215 63.957,313.486 64.656 C 312.756 65.355,312.159 66.077,312.159 66.260 C 312.159 66.668,299.850 78.998,299.443 78.998 C 299.282 78.998,298.505 79.661,297.716 80.472 C 296.926 81.282,296.128 81.945,295.942 81.945 C 295.755 81.945,295.152 82.410,294.601 82.977 C 294.050 83.545,293.451 84.009,293.270 84.009 C 293.089 84.009,292.569 84.407,292.115 84.893 C 291.661 85.380,291.126 85.777,290.926 85.777 C 290.533 85.777,289.462 86.889,289.462 87.296 C 289.462 87.434,289.197 87.546,288.873 87.546 C 288.548 87.546,288.283 87.653,288.283 87.784 C 288.283 87.915,287.752 88.256,287.104 88.542 C 286.455 88.828,285.925 89.186,285.925 89.336 C 285.925 89.486,285.755 89.609,285.548 89.609 C 285.340 89.609,284.979 89.875,284.746 90.199 C 284.512 90.523,284.085 90.789,283.796 90.789 C 283.508 90.789,283.272 90.921,283.272 91.083 C 283.272 91.245,283.036 91.378,282.747 91.378 C 282.459 91.378,282.032 91.643,281.798 91.968 C 281.564 92.292,281.214 92.557,281.020 92.557 C 280.543 92.557,278.855 93.533,278.852 93.810 C 278.851 93.931,278.585 94.031,278.261 94.031 C 277.937 94.031,277.671 94.164,277.671 94.326 C 277.671 94.488,277.406 94.620,277.082 94.620 C 276.758 94.620,276.492 94.753,276.492 94.915 C 276.492 95.077,276.293 95.210,276.050 95.210 C 275.807 95.210,275.608 95.343,275.608 95.505 C 275.608 95.667,275.343 95.800,275.018 95.800 C 274.694 95.800,274.429 95.932,274.429 96.094 C 274.429 96.256,274.193 96.389,273.904 96.389 C 273.616 96.389,273.189 96.654,272.955 96.979 C 272.721 97.303,272.261 97.569,271.932 97.570 C 271.603 97.571,270.954 97.770,270.490 98.012 C 270.025 98.254,269.461 98.452,269.237 98.452 C 269.012 98.452,268.828 98.585,268.828 98.747 C 268.828 98.909,268.563 99.042,268.239 99.042 C 267.915 99.042,267.649 99.175,267.649 99.337 C 267.649 99.499,267.384 99.632,267.060 99.632 C 266.735 99.632,266.470 99.764,266.470 99.926 C 266.470 100.088,266.271 100.221,266.028 100.221 C 265.785 100.221,265.586 100.354,265.586 100.516 C 265.586 100.678,265.188 100.811,264.702 100.811 C 264.215 100.811,263.817 100.943,263.817 101.105 C 263.817 101.268,263.552 101.400,263.228 101.400 C 262.903 101.400,262.638 101.518,262.638 101.661 C 262.638 101.805,262.041 102.012,261.312 102.122 C 260.582 102.231,259.985 102.445,259.985 102.597 C 259.985 102.749,259.587 102.874,259.101 102.874 C 258.615 102.874,258.217 103.007,258.217 103.169 C 258.217 103.331,257.885 103.464,257.480 103.464 C 257.074 103.464,256.743 103.596,256.743 103.758 C 256.743 103.920,256.345 104.053,255.859 104.053 C 255.372 104.053,254.974 104.186,254.974 104.348 C 254.974 104.510,254.576 104.643,254.090 104.643 C 253.604 104.643,253.206 104.775,253.206 104.937 C 253.206 105.099,252.874 105.232,252.469 105.232 C 252.063 105.232,251.732 105.365,251.732 105.527 C 251.732 105.689,251.201 105.822,250.553 105.822 C 249.904 105.822,249.374 105.954,249.374 106.116 C 249.374 106.279,248.976 106.411,248.489 106.411 C 248.003 106.411,247.605 106.530,247.605 106.676 C 247.605 106.822,246.676 107.034,245.540 107.148 C 244.405 107.262,243.402 107.475,243.312 107.620 C 243.222 107.766,242.560 107.885,241.840 107.885 C 241.120 107.885,240.531 108.018,240.531 108.180 C 240.531 108.342,239.934 108.475,239.204 108.475 C 238.475 108.475,237.878 108.607,237.878 108.769 C 237.878 108.933,237.092 109.064,236.109 109.064 C 235.127 109.064,234.340 109.195,234.340 109.359 C 234.340 109.525,233.505 109.654,232.424 109.654 C 231.344 109.654,230.508 109.782,230.508 109.948 C 230.508 110.122,229.477 110.243,228.003 110.243 C 226.529 110.243,225.497 110.365,225.497 110.538 C 225.497 110.724,223.532 110.833,220.192 110.833 L 214.886 110.833 214.886 83.272 L 214.886 55.711 209.138 55.711 C 205.502 55.711,203.390 55.819,203.390 56.006 C 203.390 56.179,202.358 56.301,200.884 56.301 C 199.410 56.301,198.379 56.422,198.379 56.595 C 198.379 56.758,197.649 56.890,196.758 56.890 C 195.866 56.890,195.136 57.023,195.136 57.185 C 195.136 57.347,194.473 57.480,193.662 57.480 C 192.852 57.480,192.189 57.612,192.189 57.775 C 192.189 57.937,191.592 58.069,190.862 58.069 C 190.133 58.069,189.536 58.202,189.536 58.364 C 189.536 58.526,189.005 58.659,188.357 58.659 C 187.708 58.659,187.178 58.767,187.178 58.899 C 187.178 59.031,186.282 59.289,185.188 59.472 C 181.981 60.007,181.282 60.184,181.282 60.461 C 181.282 60.605,180.884 60.722,180.398 60.722 C 179.912 60.722,179.514 60.855,179.514 61.017 C 179.514 61.179,179.116 61.312,178.629 61.312 C 178.143 61.312,177.745 61.444,177.745 61.606 C 177.745 61.769,177.413 61.901,177.008 61.901 C 176.603 61.901,176.271 62.034,176.271 62.196 C 176.271 62.358,175.873 62.491,175.387 62.491 C 174.901 62.491,174.503 62.623,174.503 62.786 C 174.503 62.948,174.237 63.080,173.913 63.080 C 173.589 63.080,173.324 63.213,173.324 63.375 C 173.324 63.537,172.992 63.670,172.587 63.670 C 172.181 63.670,171.850 63.788,171.850 63.932 C 171.850 64.076,171.352 64.280,170.744 64.385 C 169.599 64.583,167.060 65.714,166.888 66.102 C 166.834 66.223,166.535 66.323,166.225 66.323 C 165.914 66.323,165.660 66.455,165.660 66.618 C 165.660 66.780,165.394 66.912,165.070 66.912 C 164.746 66.912,164.480 67.045,164.480 67.207 C 164.480 67.369,164.215 67.502,163.891 67.502 C 163.567 67.502,163.301 67.634,163.301 67.797 C 163.301 67.959,163.102 68.091,162.859 68.091 C 162.616 68.091,162.417 68.224,162.417 68.386 C 162.417 68.548,162.198 68.681,161.931 68.681 C 161.273 68.681,158.290 70.158,158.290 70.484 C 158.290 70.627,158.091 70.744,157.848 70.744 C 157.605 70.744,157.406 70.877,157.406 71.039 C 157.406 71.201,157.170 71.334,156.882 71.334 C 156.593 71.334,156.166 71.599,155.932 71.923 C 155.699 72.248,155.271 72.513,154.983 72.513 C 154.694 72.513,154.458 72.614,154.458 72.738 C 154.458 72.861,154.206 73.094,153.897 73.254 C 153.589 73.414,152.859 73.792,152.276 74.094 C 151.693 74.396,151.216 74.761,151.216 74.905 C 151.216 75.048,151.004 75.166,150.745 75.166 C 150.485 75.166,149.902 75.564,149.447 76.050 C 148.993 76.536,148.524 76.934,148.406 76.934 C 148.287 76.934,147.975 77.180,147.713 77.480 C 147.451 77.781,146.772 78.264,146.205 78.556 C 145.637 78.847,144.959 79.331,144.696 79.631 C 144.434 79.931,144.133 80.177,144.027 80.177 C 143.921 80.177,143.104 80.906,142.213 81.798 C 141.321 82.690,140.459 83.419,140.296 83.419 C 139.938 83.419,129.993 93.316,129.993 93.673 C 129.993 93.812,129.396 94.548,128.666 95.310 C 127.937 96.071,127.340 96.882,127.340 97.111 C 127.340 97.341,127.101 97.604,126.809 97.697 C 126.516 97.790,125.953 98.407,125.556 99.069 C 125.159 99.730,124.536 100.586,124.171 100.970 C 123.806 101.354,123.508 101.778,123.508 101.911 C 123.508 102.045,123.242 102.346,122.918 102.579 C 122.594 102.813,122.329 103.211,122.329 103.464 C 122.329 103.716,122.063 104.114,121.739 104.348 C 121.415 104.582,121.150 105.009,121.150 105.297 C 121.150 105.586,121.047 105.822,120.922 105.822 C 120.797 105.822,120.444 106.286,120.139 106.853 C 119.833 107.421,119.471 107.885,119.335 107.885 C 119.198 107.885,119.086 108.150,119.086 108.475 C 119.086 108.799,118.954 109.064,118.791 109.064 C 118.629 109.064,118.497 109.300,118.497 109.589 C 118.497 109.877,118.231 110.304,117.907 110.538 C 117.583 110.772,117.318 111.199,117.318 111.487 C 117.318 111.776,117.185 112.012,117.023 112.012 C 116.861 112.012,116.728 112.211,116.728 112.454 C 116.728 112.697,116.595 112.896,116.433 112.896 C 116.271 112.896,116.139 113.161,116.139 113.486 C 116.139 113.810,116.006 114.075,115.844 114.075 C 115.682 114.075,115.549 114.331,115.549 114.644 C 115.549 114.956,115.350 115.411,115.107 115.654 C 114.864 115.897,114.665 116.239,114.665 116.412 C 114.665 116.586,114.532 116.728,114.370 116.728 C 114.208 116.728,114.075 116.993,114.075 117.318 C 114.075 117.642,113.943 117.907,113.780 117.907 C 113.618 117.907,113.486 118.305,113.486 118.791 C 113.486 119.278,113.353 119.676,113.191 119.676 C 113.029 119.676,112.896 119.941,112.896 120.265 C 112.896 120.590,112.763 120.855,112.601 120.855 C 112.439 120.855,112.307 121.054,112.307 121.297 C 112.307 121.540,112.174 121.739,112.012 121.739 C 111.850 121.739,111.717 121.997,111.717 122.311 C 111.717 122.626,111.584 122.965,111.422 123.066 C 111.260 123.166,111.127 123.490,111.127 123.786 C 111.127 124.082,110.929 124.705,110.687 125.169 C 110.445 125.633,110.246 126.312,110.245 126.676 C 110.244 127.041,110.111 127.340,109.948 127.340 C 109.786 127.340,109.654 127.605,109.654 127.929 C 109.654 128.254,109.521 128.519,109.359 128.519 C 109.197 128.519,109.064 128.917,109.064 129.403 C 109.064 129.889,108.931 130.287,108.769 130.287 C 108.607 130.287,108.475 130.619,108.475 131.024 C 108.475 131.430,108.342 131.761,108.180 131.761 C 108.018 131.761,107.885 132.159,107.885 132.646 C 107.885 133.132,107.752 133.530,107.590 133.530 C 107.428 133.530,107.296 133.928,107.296 134.414 C 107.296 134.901,107.163 135.298,107.001 135.298 C 106.839 135.298,106.706 135.752,106.706 136.306 C 106.706 136.859,106.577 137.357,106.419 137.411 C 106.262 137.465,106.044 138.471,105.935 139.646 C 105.826 140.822,105.623 141.783,105.485 141.783 C 105.346 141.783,105.232 142.314,105.232 142.962 C 105.232 143.611,105.099 144.141,104.937 144.141 C 104.775 144.141,104.643 144.738,104.643 145.468 C 104.643 146.197,104.510 146.794,104.348 146.794 C 104.186 146.794,104.053 147.516,104.053 148.398 C 104.053 149.280,103.920 150.084,103.758 150.184 C 103.596 150.284,103.464 151.221,103.464 152.265 C 103.464 153.334,103.335 154.164,103.169 154.164 C 102.990 154.164,102.874 155.441,102.874 157.406 C 102.874 159.371,102.758 160.648,102.579 160.648 C 102.398 160.648,102.284 162.073,102.284 164.333 L 102.284 168.018 130.877 168.018 L 159.469 168.018 159.469 167.133 C 159.469 166.647,159.602 166.249,159.764 166.249 C 159.944 166.249,160.059 164.923,160.059 162.859 C 160.059 160.796,160.174 159.469,160.354 159.469 C 160.516 159.469,160.648 158.740,160.648 157.848 C 160.648 156.957,160.781 156.227,160.943 156.227 C 161.105 156.227,161.238 155.771,161.238 155.213 C 161.238 154.655,161.357 154.125,161.502 154.035 C 161.647 153.946,161.837 153.374,161.924 152.765 C 162.201 150.841,162.819 148.563,163.065 148.563 C 163.195 148.563,163.301 148.298,163.301 147.973 C 163.301 147.649,163.434 147.384,163.596 147.384 C 163.758 147.384,163.891 146.986,163.891 146.500 C 163.891 146.013,164.024 145.615,164.186 145.615 C 164.348 145.615,164.480 145.416,164.480 145.173 C 164.480 144.930,164.613 144.731,164.775 144.731 C 164.937 144.731,165.070 144.466,165.070 144.141 C 165.070 143.817,165.203 143.552,165.365 143.552 C 165.527 143.552,165.660 143.287,165.660 142.962 C 165.660 142.638,165.792 142.373,165.954 142.373 C 166.116 142.373,166.249 142.108,166.249 141.783 C 166.249 141.459,166.382 141.194,166.544 141.194 C 166.706 141.194,166.839 140.924,166.839 140.595 C 166.839 140.266,167.038 139.920,167.281 139.827 C 167.524 139.733,167.723 139.406,167.723 139.099 C 167.723 138.792,167.856 138.541,168.018 138.541 C 168.180 138.541,168.312 138.305,168.312 138.016 C 168.312 137.728,168.578 137.301,168.902 137.067 C 169.226 136.833,169.492 136.464,169.492 136.246 C 169.492 136.028,169.889 135.515,170.376 135.106 C 170.862 134.697,171.260 134.198,171.260 133.999 C 171.260 133.799,171.857 133.012,172.587 132.251 C 173.316 131.490,173.913 130.799,173.913 130.717 C 173.913 130.634,174.477 129.993,175.166 129.292 C 175.855 128.591,176.614 127.732,176.852 127.384 C 177.091 127.035,177.454 126.750,177.660 126.750 C 178.032 126.750,178.971 126.037,180.280 124.761 C 180.655 124.396,181.046 124.097,181.151 124.097 C 181.255 124.097,181.712 123.699,182.167 123.213 C 182.621 122.727,183.175 122.329,183.399 122.329 C 183.622 122.329,183.996 122.063,184.230 121.739 C 184.464 121.415,184.895 121.150,185.189 121.150 C 185.482 121.150,185.799 120.951,185.892 120.707 C 185.985 120.464,186.313 120.265,186.620 120.265 C 186.926 120.265,187.178 120.133,187.178 119.971 C 187.178 119.808,187.443 119.676,187.767 119.676 C 188.091 119.676,188.357 119.568,188.357 119.436 C 188.357 119.304,188.821 119.014,189.388 118.791 C 189.956 118.569,190.420 118.279,190.420 118.147 C 190.420 118.015,190.685 117.907,191.010 117.907 C 191.334 117.907,191.599 117.775,191.599 117.612 C 191.599 117.450,191.864 117.318,192.189 117.318 C 192.513 117.318,192.779 117.218,192.781 117.097 C 192.782 116.975,193.611 116.634,194.623 116.338 C 195.635 116.043,196.693 115.678,196.975 115.528 C 197.256 115.377,197.746 115.254,198.063 115.254 C 198.379 115.254,198.721 115.122,198.821 114.959 C 198.921 114.797,199.327 114.665,199.723 114.665 C 200.118 114.665,200.442 114.532,200.442 114.370 C 200.442 114.208,200.973 114.075,201.621 114.075 C 202.270 114.075,202.800 113.943,202.800 113.780 C 202.800 113.618,203.530 113.486,204.422 113.486 C 205.313 113.486,206.043 113.353,206.043 113.191 C 206.043 113.021,206.976 112.896,208.254 112.896 C 209.531 112.896,210.464 112.772,210.464 112.601 C 210.464 112.438,211.250 112.307,212.233 112.307 L 214.001 112.307 214.001 140.162 L 214.001 168.018 219.160 168.018 C 222.402 168.018,224.318 167.908,224.318 167.723 C 224.318 167.542,225.786 167.428,228.133 167.428 C 230.358 167.428,232.023 167.305,232.130 167.133 C 232.230 166.971,233.498 166.839,234.947 166.839 C 236.508 166.839,237.583 166.718,237.583 166.544 C 237.583 166.375,238.467 166.249,239.646 166.249 C 240.825 166.249,241.710 166.123,241.710 165.954 C 241.710 165.788,242.545 165.660,243.626 165.660 C 244.706 165.660,245.542 165.531,245.542 165.365 C 245.542 165.203,246.139 165.070,246.868 165.070 C 247.598 165.070,248.195 164.937,248.195 164.775 C 248.195 164.613,248.924 164.480,249.816 164.480 C 250.707 164.480,251.437 164.360,251.437 164.212 C 251.437 164.065,252.564 163.850,253.943 163.735 C 255.321 163.620,256.448 163.409,256.448 163.267 C 256.448 163.124,256.979 163.007,257.627 163.007 C 258.276 163.007,258.806 162.874,258.806 162.712 C 258.806 162.550,259.263 162.417,259.820 162.417 C 260.378 162.417,260.917 162.284,261.017 162.122 C 261.117 161.960,261.656 161.828,262.213 161.828 C 262.771 161.828,263.228 161.695,263.228 161.533 C 263.228 161.371,263.684 161.238,264.242 161.238 C 264.800 161.238,265.338 161.105,265.438 160.943 C 265.539 160.781,265.944 160.648,266.340 160.648 C 266.736 160.648,267.060 160.516,267.060 160.354 C 267.060 160.192,267.590 160.059,268.239 160.059 C 268.887 160.059,269.418 159.926,269.418 159.764 C 269.418 159.602,269.668 159.469,269.974 159.469 C 270.610 159.469,273.440 158.662,274.204 158.263 C 274.485 158.116,274.983 157.996,275.309 157.996 C 275.636 157.996,275.903 157.863,275.903 157.701 C 275.903 157.539,276.301 157.406,276.787 157.406 C 277.273 157.406,277.671 157.273,277.671 157.111 C 277.671 156.949,277.910 156.817,278.202 156.817 C 278.861 156.817,280.319 156.158,280.322 155.859 C 280.323 155.737,280.722 155.637,281.209 155.637 C 281.695 155.637,282.093 155.505,282.093 155.343 C 282.093 155.181,282.358 155.048,282.682 155.048 C 283.007 155.048,283.272 154.930,283.272 154.787 C 283.272 154.643,283.869 154.436,284.598 154.326 C 285.328 154.217,285.925 154.003,285.925 153.851 C 285.925 153.699,286.249 153.574,286.644 153.574 C 287.040 153.574,287.446 153.441,287.546 153.279 C 287.646 153.117,287.986 152.985,288.300 152.985 C 288.615 152.985,288.873 152.852,288.873 152.690 C 288.873 152.528,289.071 152.395,289.315 152.395 C 289.558 152.395,289.757 152.262,289.757 152.100 C 289.757 151.938,290.155 151.805,290.641 151.805 C 291.127 151.805,291.525 151.673,291.525 151.511 C 291.525 151.349,291.791 151.216,292.115 151.216 C 292.439 151.216,292.704 151.083,292.704 150.921 C 292.704 150.759,292.970 150.626,293.294 150.626 C 293.618 150.626,293.884 150.504,293.884 150.355 C 293.884 150.206,294.280 149.997,294.764 149.890 C 295.249 149.784,295.721 149.574,295.814 149.425 C 295.906 149.275,296.239 149.153,296.554 149.153 C 296.869 149.153,297.126 149.020,297.126 148.858 C 297.126 148.696,297.391 148.563,297.716 148.563 C 298.040 148.563,298.305 148.430,298.305 148.268 C 298.305 148.106,298.504 147.973,298.747 147.973 C 298.990 147.973,299.189 147.841,299.189 147.679 C 299.189 147.517,299.455 147.384,299.779 147.384 C 300.103 147.384,300.368 147.251,300.368 147.089 C 300.368 146.927,300.634 146.794,300.958 146.794 C 301.282 146.794,301.548 146.662,301.548 146.500 C 301.548 146.338,301.813 146.205,302.137 146.205 C 302.461 146.205,302.727 146.072,302.727 145.910 C 302.727 145.748,302.926 145.615,303.169 145.615 C 303.412 145.615,303.611 145.497,303.611 145.353 C 303.611 145.209,304.052 145.009,304.591 144.908 C 305.130 144.806,305.854 144.460,306.200 144.138 C 306.546 143.816,307.033 143.552,307.283 143.552 C 307.533 143.552,307.738 143.419,307.738 143.257 C 307.738 143.095,307.937 142.962,308.180 142.962 C 308.423 142.962,308.622 142.830,308.622 142.668 C 308.622 142.506,308.858 142.373,309.146 142.373 C 309.435 142.373,309.862 142.108,310.096 141.783 C 310.330 141.459,310.757 141.194,311.045 141.194 C 311.334 141.194,311.570 141.093,311.570 140.969 C 311.570 140.845,311.822 140.613,312.131 140.453 C 312.439 140.293,313.169 139.915,313.752 139.613 C 314.335 139.311,314.812 138.946,314.812 138.802 C 314.812 138.658,315.048 138.541,315.337 138.541 C 315.625 138.541,316.052 138.276,316.286 137.951 C 316.520 137.627,316.851 137.362,317.023 137.362 C 317.194 137.362,317.526 137.097,317.760 136.772 C 317.993 136.448,318.421 136.183,318.709 136.183 C 318.998 136.183,319.234 136.076,319.234 135.945 C 319.234 135.814,319.764 135.473,320.413 135.186 C 321.061 134.900,321.592 134.543,321.592 134.393 C 321.592 134.242,321.761 134.119,321.969 134.119 C 322.176 134.119,322.537 133.854,322.771 133.530 C 323.005 133.206,323.379 132.940,323.602 132.940 C 323.825 132.940,324.380 132.542,324.834 132.056 C 325.289 131.570,325.774 131.172,325.913 131.172 C 326.053 131.172,326.524 130.840,326.961 130.435 C 327.399 130.029,327.905 129.698,328.087 129.698 C 328.269 129.698,328.927 129.167,329.550 128.519 C 330.174 127.870,330.766 127.340,330.867 127.340 C 330.968 127.340,331.370 127.041,331.760 126.676 C 332.918 125.594,333.342 125.276,333.629 125.276 C 333.950 125.276,335.994 123.292,336.616 122.377 C 336.855 122.026,337.218 121.739,337.425 121.739 C 337.847 121.739,338.925 120.877,340.281 119.456 C 343.016 116.591,343.824 115.844,344.188 115.844 C 344.424 115.844,348.710 111.492,348.710 111.253 C 348.710 111.025,351.682 107.896,353.834 105.858 C 354.582 105.149,355.195 104.371,355.195 104.129 C 355.195 103.697,357.490 101.400,357.922 101.400 C 358.043 101.400,358.143 101.197,358.143 100.948 C 358.143 100.700,358.574 100.044,359.101 99.490 C 360.366 98.162,360.796 97.633,360.796 97.404 C 360.796 97.300,361.194 96.843,361.680 96.389 C 362.167 95.935,362.564 95.404,362.564 95.210 C 362.564 95.016,362.962 94.485,363.449 94.031 C 363.935 93.577,364.333 93.065,364.333 92.894 C 364.333 92.724,364.665 92.252,365.070 91.847 C 365.475 91.442,365.807 90.934,365.807 90.720 C 365.807 90.505,366.072 90.138,366.396 89.904 C 366.721 89.670,366.987 89.276,366.989 89.029 C 366.990 88.781,367.388 88.264,367.873 87.881 C 368.358 87.498,368.755 87.017,368.755 86.812 C 368.755 86.607,368.954 86.274,369.197 86.072 C 369.440 85.870,369.639 85.485,369.639 85.217 C 369.639 84.948,369.904 84.537,370.228 84.304 C 370.553 84.070,370.818 83.738,370.818 83.567 C 370.818 83.395,371.083 83.063,371.408 82.830 C 371.732 82.596,371.997 82.169,371.997 81.880 C 371.997 81.592,372.130 81.356,372.292 81.356 C 372.454 81.356,372.587 81.120,372.587 80.831 C 372.587 80.543,372.852 80.116,373.176 79.882 C 373.500 79.648,373.766 79.237,373.766 78.969 C 373.766 78.700,373.965 78.315,374.208 78.113 C 374.451 77.912,374.650 77.564,374.650 77.340 C 374.650 77.117,374.783 76.934,374.945 76.934 C 375.107 76.934,375.239 76.669,375.239 76.345 C 375.239 76.021,375.372 75.755,375.534 75.755 C 375.696 75.755,375.829 75.539,375.829 75.274 C 375.829 75.009,376.071 74.578,376.367 74.316 C 376.663 74.054,377.093 73.408,377.323 72.881 C 377.553 72.354,377.842 71.923,377.964 71.923 C 378.087 71.923,378.187 71.658,378.187 71.334 C 378.187 71.010,378.320 70.744,378.482 70.744 C 378.644 70.744,378.777 70.488,378.777 70.176 C 378.777 69.863,378.976 69.408,379.219 69.165 C 379.462 68.922,379.661 68.581,379.661 68.407 C 379.661 68.233,379.794 68.091,379.956 68.091 C 380.118 68.091,380.251 67.826,380.251 67.502 C 380.251 67.178,380.383 66.912,380.545 66.912 C 380.707 66.912,380.840 66.647,380.840 66.323 C 380.840 65.999,380.973 65.733,381.135 65.733 C 381.297 65.733,381.430 65.479,381.430 65.168 C 381.430 64.858,381.534 64.559,381.662 64.505 C 382.087 64.325,383.493 61.116,383.493 60.324 C 383.493 59.895,383.626 59.543,383.788 59.543 C 383.950 59.543,384.083 59.344,384.083 59.101 C 384.083 58.858,384.215 58.659,384.377 58.659 C 384.539 58.659,384.672 58.394,384.672 58.069 C 384.672 57.745,384.805 57.480,384.967 57.480 C 385.129 57.480,385.262 57.214,385.262 56.890 C 385.262 56.566,385.394 56.301,385.556 56.301 C 385.718 56.301,385.851 55.903,385.851 55.416 C 385.851 54.930,385.984 54.532,386.146 54.532 C 386.308 54.532,386.441 54.333,386.441 54.090 C 386.441 53.847,386.573 53.648,386.735 53.648 C 386.898 53.648,387.030 53.382,387.030 53.058 C 387.030 52.734,387.163 52.469,387.325 52.469 C 387.487 52.469,387.620 52.071,387.620 51.584 C 387.620 51.098,387.744 50.700,387.896 50.700 C 388.049 50.700,388.263 50.103,388.372 49.374 C 388.481 48.644,388.689 48.047,388.832 48.047 C 388.976 48.047,389.094 47.649,389.094 47.163 C 389.094 46.676,389.226 46.279,389.388 46.279 C 389.550 46.279,389.683 46.013,389.683 45.689 C 389.683 45.365,389.816 45.099,389.978 45.099 C 390.140 45.099,390.273 44.768,390.273 44.363 C 390.273 43.957,390.405 43.626,390.567 43.626 C 390.730 43.626,390.862 43.228,390.862 42.741 C 390.862 42.255,390.995 41.857,391.157 41.857 C 391.319 41.857,391.452 41.533,391.452 41.138 C 391.452 40.742,391.584 40.336,391.746 40.236 C 391.909 40.136,392.041 39.738,392.041 39.352 C 392.041 38.965,392.168 38.571,392.322 38.476 C 392.477 38.380,392.693 37.510,392.803 36.542 C 392.912 35.574,393.117 34.783,393.258 34.783 C 393.400 34.783,393.515 34.385,393.515 33.898 C 393.515 33.412,393.648 33.014,393.810 33.014 C 393.972 33.014,394.105 32.616,394.105 32.130 C 394.105 31.643,394.237 31.245,394.399 31.245 C 394.562 31.245,394.694 30.781,394.694 30.214 C 394.694 29.646,394.827 29.182,394.989 29.182 C 395.151 29.182,395.284 28.651,395.284 28.003 C 395.284 27.354,395.416 26.824,395.578 26.824 C 395.741 26.824,395.873 26.367,395.873 25.810 C 395.873 25.252,396.006 24.713,396.168 24.613 C 396.330 24.513,396.463 23.842,396.463 23.122 C 396.463 22.402,396.578 21.813,396.719 21.813 C 396.860 21.813,397.057 21.249,397.157 20.560 C 397.256 19.871,397.465 18.644,397.620 17.833 C 397.775 17.023,397.909 15.730,397.919 14.959 C 397.929 14.189,398.069 13.559,398.231 13.559 C 398.394 13.559,398.526 12.830,398.526 11.938 C 398.526 11.046,398.659 10.317,398.821 10.317 C 398.987 10.317,399.116 9.490,399.116 8.425 C 399.116 7.385,399.228 6.490,399.366 6.436 C 399.503 6.382,399.701 4.912,399.805 3.169 L 399.994 -0.000 371.257 -0.000 L 342.520 0.000 342.520 1.032 M92.852 73.353 C 92.852 73.491,91.228 73.695,89.243 73.807 C 87.259 73.920,85.508 74.138,85.352 74.294 C 85.197 74.449,84.500 74.576,83.803 74.576 C 83.105 74.576,82.535 74.709,82.535 74.871 C 82.535 75.033,82.004 75.166,81.356 75.166 C 80.707 75.166,80.177 75.298,80.177 75.461 C 80.177 75.623,79.713 75.755,79.145 75.755 C 78.578 75.755,78.113 75.888,78.113 76.050 C 78.113 76.212,77.583 76.345,76.934 76.345 C 76.286 76.345,75.755 76.478,75.755 76.640 C 75.755 76.802,75.357 76.934,74.871 76.934 C 74.385 76.934,73.987 77.067,73.987 77.229 C 73.987 77.391,73.655 77.524,73.250 77.524 C 72.845 77.524,72.513 77.657,72.513 77.819 C 72.513 77.981,72.148 78.114,71.702 78.115 C 71.256 78.116,70.512 78.315,70.047 78.557 C 69.583 78.800,68.953 78.998,68.647 78.998 C 68.342 78.998,68.091 79.130,68.091 79.293 C 68.091 79.455,67.693 79.587,67.207 79.587 C 66.721 79.587,66.323 79.720,66.323 79.882 C 66.323 80.044,66.057 80.177,65.733 80.177 C 65.409 80.177,65.144 80.310,65.144 80.472 C 65.144 80.634,64.878 80.766,64.554 80.766 C 64.230 80.766,63.965 80.899,63.965 81.061 C 63.965 81.223,63.766 81.356,63.522 81.356 C 63.279 81.356,63.080 81.489,63.080 81.651 C 63.080 81.813,62.815 81.945,62.491 81.945 C 62.167 81.945,61.901 82.078,61.901 82.240 C 61.901 82.402,61.503 82.535,61.017 82.535 C 60.531 82.535,60.133 82.653,60.133 82.798 C 60.133 82.942,59.801 83.144,59.396 83.246 C 58.990 83.347,58.659 83.561,58.659 83.720 C 58.659 83.879,58.394 84.009,58.069 84.009 C 57.745 84.009,57.480 84.141,57.480 84.304 C 57.480 84.466,57.214 84.598,56.890 84.598 C 56.566 84.598,56.301 84.731,56.301 84.893 C 56.301 85.055,56.035 85.188,55.711 85.188 C 55.387 85.188,55.122 85.321,55.122 85.483 C 55.122 85.645,54.952 85.777,54.745 85.777 C 54.537 85.777,54.176 86.043,53.943 86.367 C 53.709 86.691,53.282 86.957,52.993 86.957 C 52.705 86.957,52.469 87.080,52.469 87.230 C 52.469 87.380,51.938 87.737,51.290 88.024 C 50.641 88.310,50.111 88.651,50.111 88.782 C 50.111 88.913,49.941 89.020,49.733 89.020 C 49.526 89.020,49.165 89.285,48.931 89.609 C 48.698 89.934,48.324 90.199,48.100 90.199 C 47.877 90.199,47.322 90.597,46.868 91.083 C 46.414 91.570,45.890 91.968,45.704 91.968 C 45.518 91.968,45.059 92.299,44.683 92.704 C 44.308 93.110,43.842 93.441,43.649 93.441 C 43.456 93.441,42.517 94.237,41.562 95.210 C 40.607 96.183,39.747 96.979,39.650 96.979 C 39.340 96.979,37.329 98.874,34.889 101.467 C 34.542 101.836,33.846 102.513,33.342 102.973 C 32.837 103.432,32.424 103.934,32.424 104.088 C 32.424 104.335,31.816 105.037,29.763 107.158 C 29.443 107.488,29.182 107.866,29.182 107.998 C 29.182 108.130,28.784 108.610,28.298 109.064 C 27.811 109.518,27.413 110.042,27.413 110.227 C 27.413 110.413,27.082 110.896,26.676 111.302 C 26.271 111.707,25.940 112.202,25.940 112.402 C 25.940 112.602,25.674 112.957,25.350 113.191 C 25.026 113.425,24.761 113.823,24.761 114.075 C 24.761 114.328,24.495 114.726,24.171 114.959 C 23.847 115.193,23.581 115.588,23.581 115.838 C 23.581 116.087,23.316 116.457,22.992 116.660 C 22.668 116.862,22.402 117.226,22.402 117.467 C 22.402 117.709,22.294 117.907,22.162 117.907 C 21.869 117.907,20.929 119.824,20.929 120.423 C 20.929 120.660,20.796 120.855,20.634 120.855 C 20.472 120.855,20.339 121.054,20.339 121.297 C 20.339 121.540,20.206 121.739,20.044 121.739 C 19.882 121.739,19.749 122.004,19.749 122.329 C 19.749 122.653,19.617 122.918,19.455 122.918 C 19.293 122.918,19.160 123.154,19.160 123.443 C 19.160 123.731,18.895 124.158,18.570 124.392 C 18.246 124.626,17.981 125.027,17.981 125.283 C 17.981 125.862,17.313 127.334,17.049 127.337 C 16.941 127.339,16.764 127.870,16.654 128.519 C 16.545 129.167,16.334 129.698,16.186 129.698 C 16.038 129.698,15.917 129.963,15.917 130.287 C 15.917 130.612,15.785 130.877,15.623 130.877 C 15.461 130.877,15.328 131.209,15.328 131.614 C 15.328 132.019,15.195 132.351,15.033 132.351 C 14.871 132.351,14.738 132.616,14.738 132.940 C 14.738 133.265,14.606 133.530,14.444 133.530 C 14.282 133.530,14.149 133.928,14.149 134.414 C 14.149 134.901,14.016 135.298,13.854 135.298 C 13.692 135.298,13.559 135.630,13.559 136.035 C 13.559 136.441,13.427 136.772,13.265 136.772 C 13.102 136.772,12.970 137.170,12.970 137.657 C 12.970 138.143,12.837 138.541,12.675 138.541 C 12.513 138.541,12.380 138.881,12.380 139.297 C 12.380 139.713,12.246 140.304,12.082 140.610 C 11.919 140.916,11.701 141.969,11.598 142.949 C 11.496 143.929,11.298 144.731,11.159 144.731 C 11.020 144.731,10.906 145.195,10.906 145.763 C 10.906 146.330,10.774 146.794,10.612 146.794 C 10.450 146.794,10.317 147.458,10.317 148.268 C 10.317 149.079,10.184 149.742,10.022 149.742 C 9.860 149.742,9.727 150.472,9.727 151.363 C 9.727 152.255,9.595 152.985,9.433 152.985 C 9.262 152.985,9.138 153.918,9.138 155.195 C 9.138 156.473,9.013 157.406,8.843 157.406 C 8.657 157.406,8.548 159.371,8.548 162.712 L 8.548 168.018 37.730 168.018 L 66.912 168.018 66.912 165.824 C 66.912 164.618,67.045 163.549,67.207 163.449 C 67.369 163.349,67.502 162.602,67.502 161.791 C 67.502 160.979,67.636 160.065,67.800 159.758 C 67.964 159.452,68.181 158.400,68.284 157.420 C 68.386 156.439,68.584 155.637,68.723 155.637 C 68.862 155.637,68.976 155.372,68.976 155.048 C 68.976 154.724,69.108 154.458,69.270 154.458 C 69.433 154.458,69.565 154.127,69.565 153.721 C 69.565 153.316,69.698 152.985,69.860 152.985 C 70.022 152.985,70.155 152.719,70.155 152.395 C 70.155 152.071,70.287 151.805,70.450 151.805 C 70.612 151.805,70.744 151.540,70.744 151.216 C 70.744 150.892,70.877 150.626,71.039 150.626 C 71.201 150.626,71.334 150.448,71.334 150.230 C 71.334 150.012,71.592 149.600,71.907 149.315 C 72.222 149.030,72.570 148.384,72.681 147.879 C 72.792 147.374,73.264 146.605,73.729 146.170 C 74.195 145.735,74.576 145.296,74.576 145.195 C 74.576 145.093,75.140 144.433,75.829 143.727 C 76.518 143.021,77.489 141.997,77.987 141.450 C 79.126 140.199,80.396 139.130,80.742 139.130 C 80.889 139.130,81.344 138.732,81.753 138.246 C 82.162 137.760,82.675 137.362,82.893 137.362 C 83.111 137.362,83.480 137.097,83.714 136.772 C 83.948 136.448,84.375 136.183,84.663 136.183 C 84.952 136.183,85.188 136.050,85.188 135.888 C 85.188 135.726,85.428 135.593,85.721 135.593 C 86.014 135.593,86.512 135.398,86.826 135.160 C 87.141 134.922,87.631 134.723,87.915 134.718 C 88.198 134.713,88.430 134.576,88.430 134.414 C 88.430 134.252,88.696 134.119,89.020 134.119 C 89.344 134.119,89.609 133.987,89.609 133.825 C 89.609 133.662,89.933 133.530,90.329 133.530 C 90.725 133.530,91.130 133.397,91.231 133.235 C 91.331 133.073,91.737 132.940,92.132 132.940 C 92.528 132.940,92.852 132.808,92.852 132.646 C 92.852 132.483,93.250 132.351,93.736 132.351 C 94.223 132.351,94.620 132.218,94.620 132.056 C 94.620 131.894,95.217 131.761,95.947 131.761 C 96.676 131.761,97.273 131.629,97.273 131.466 C 97.273 131.289,98.502 131.172,100.368 131.172 L 103.464 131.172 103.464 102.137 L 103.464 73.102 98.158 73.102 C 95.239 73.102,92.852 73.215,92.852 73.353 M94.031 255.269 L 94.031 293.306 99.853 293.227 L 105.674 293.147 105.759 290.412 L 105.844 287.677 107.288 289.159 C 108.081 289.974,108.890 290.641,109.084 290.641 C 109.278 290.641,109.652 290.880,109.914 291.172 C 110.465 291.786,112.324 292.704,113.014 292.704 C 113.274 292.704,113.486 292.837,113.486 292.999 C 113.486 293.161,113.884 293.294,114.370 293.294 C 114.856 293.294,115.254 293.427,115.254 293.589 C 115.254 293.751,115.586 293.884,115.991 293.884 C 116.396 293.884,116.728 294.016,116.728 294.178 C 116.728 294.366,119.037 294.473,123.066 294.473 C 127.094 294.473,129.403 294.366,129.403 294.178 C 129.403 294.016,130.066 293.884,130.877 293.884 C 131.688 293.884,132.351 293.751,132.351 293.589 C 132.351 293.427,132.682 293.294,133.088 293.294 C 133.493 293.294,133.825 293.161,133.825 292.999 C 133.825 292.837,134.153 292.704,134.553 292.704 C 135.402 292.704,138.541 291.285,138.541 290.901 C 138.541 290.758,138.687 290.641,138.865 290.641 C 139.043 290.641,139.560 290.243,140.015 289.757 C 140.469 289.270,140.998 288.873,141.189 288.873 C 141.597 288.873,143.552 286.928,143.552 286.522 C 143.552 286.371,143.884 285.915,144.289 285.509 C 144.694 285.104,145.026 284.616,145.026 284.425 C 145.026 284.234,145.268 283.863,145.564 283.601 C 145.860 283.339,146.290 282.693,146.520 282.167 C 146.750 281.640,147.039 281.209,147.161 281.209 C 147.284 281.209,147.384 280.822,147.384 280.349 C 147.384 279.876,147.515 279.445,147.676 279.391 C 147.836 279.337,148.054 278.464,148.160 277.450 C 148.266 276.437,148.466 275.608,148.605 275.608 C 148.744 275.608,148.858 275.019,148.858 274.299 C 148.858 273.579,148.990 272.908,149.153 272.808 C 149.333 272.696,149.447 270.299,149.447 266.600 C 149.447 262.780,149.339 260.575,149.153 260.575 C 148.990 260.575,148.858 259.978,148.858 259.248 C 148.858 258.519,148.744 257.922,148.605 257.922 C 148.466 257.922,148.266 257.093,148.160 256.080 C 148.054 255.066,147.836 254.193,147.676 254.139 C 147.515 254.085,147.384 253.654,147.384 253.181 C 147.384 252.708,147.251 252.321,147.089 252.321 C 146.927 252.321,146.794 252.056,146.794 251.732 C 146.794 251.408,146.662 251.142,146.500 251.142 C 146.338 251.142,146.205 250.877,146.205 250.553 C 146.205 250.228,146.072 249.963,145.910 249.963 C 145.748 249.963,145.615 249.793,145.615 249.586 C 145.615 249.379,145.350 249.018,145.026 248.784 C 144.702 248.550,144.436 248.180,144.436 247.961 C 144.436 247.742,144.270 247.391,144.068 247.181 C 143.293 246.378,142.373 245.235,142.373 245.076 C 142.373 244.779,141.540 244.068,141.192 244.068 C 141.005 244.068,140.366 243.562,139.771 242.944 C 139.175 242.326,138.257 241.631,137.730 241.399 C 137.203 241.166,136.772 240.888,136.772 240.779 C 136.772 240.671,136.242 240.493,135.593 240.383 C 134.945 240.274,134.414 240.063,134.414 239.915 C 134.414 239.767,134.083 239.646,133.677 239.646 C 133.272 239.646,132.940 239.514,132.940 239.352 C 132.940 239.189,132.542 239.057,132.056 239.057 C 131.570 239.057,131.172 238.924,131.172 238.762 C 131.172 238.600,130.715 238.467,130.157 238.467 C 129.600 238.467,129.061 238.335,128.961 238.172 C 128.850 237.992,126.551 237.878,123.048 237.878 C 119.424 237.878,117.318 237.986,117.318 238.172 C 117.318 238.335,116.853 238.467,116.286 238.467 C 115.718 238.467,115.254 238.600,115.254 238.762 C 115.254 238.924,114.989 239.057,114.665 239.057 C 114.340 239.057,114.075 239.189,114.075 239.352 C 114.075 239.514,113.677 239.646,113.191 239.646 C 112.704 239.646,112.307 239.779,112.307 239.941 C 112.307 240.103,112.037 240.236,111.708 240.236 C 111.378 240.236,111.033 240.435,110.939 240.678 C 110.846 240.921,110.582 241.120,110.354 241.120 C 110.125 241.120,109.045 242.013,107.953 243.105 L 105.969 245.089 105.822 231.240 L 105.674 217.391 99.853 217.311 L 94.031 217.231 94.031 255.269 M280.914 255.269 L 280.914 293.294 286.809 293.294 L 292.704 293.294 292.704 290.789 C 292.704 288.479,292.751 288.283,293.294 288.283 C 293.618 288.283,293.884 288.402,293.884 288.547 C 293.884 288.980,295.562 290.641,296.000 290.641 C 296.224 290.641,296.598 290.906,296.831 291.231 C 297.065 291.555,297.492 291.820,297.781 291.820 C 298.069 291.820,298.305 291.947,298.305 292.102 C 298.305 292.256,298.769 292.470,299.337 292.577 C 299.904 292.683,300.368 292.888,300.368 293.032 C 300.368 293.176,300.634 293.294,300.958 293.294 C 301.282 293.294,301.548 293.427,301.548 293.589 C 301.548 293.751,302.004 293.884,302.562 293.884 C 303.120 293.884,303.658 294.016,303.758 294.178 C 303.871 294.360,306.365 294.473,310.261 294.473 C 314.277 294.473,316.581 294.366,316.581 294.178 C 316.581 294.016,317.045 293.884,317.612 293.884 C 318.180 293.884,318.644 293.751,318.644 293.589 C 318.644 293.427,319.175 293.294,319.823 293.294 C 320.472 293.294,321.002 293.189,321.002 293.060 C 321.002 292.932,321.585 292.671,322.298 292.480 C 323.011 292.289,323.798 291.930,324.046 291.682 C 324.294 291.434,324.706 291.231,324.961 291.231 C 325.215 291.231,325.424 291.098,325.424 290.936 C 325.424 290.774,325.608 290.641,325.833 290.641 C 326.058 290.641,326.555 290.244,326.938 289.759 C 327.321 289.275,327.805 288.877,328.013 288.875 C 328.383 288.873,330.435 286.995,330.435 286.658 C 330.435 286.564,330.766 286.156,331.172 285.751 C 331.577 285.345,331.909 284.754,331.909 284.438 C 331.909 284.121,332.041 283.861,332.203 283.861 C 332.366 283.861,332.498 283.605,332.498 283.292 C 332.498 282.978,332.763 282.638,333.088 282.535 C 333.501 282.404,333.677 282.089,333.677 281.483 C 333.677 281.008,333.810 280.619,333.972 280.619 C 334.134 280.619,334.267 280.354,334.267 280.029 C 334.267 279.705,334.399 279.440,334.562 279.440 C 334.724 279.440,334.856 279.116,334.856 278.720 C 334.856 278.325,334.989 277.919,335.151 277.819 C 335.313 277.719,335.446 277.207,335.446 276.681 C 335.446 276.156,335.612 275.560,335.814 275.357 C 336.091 275.080,336.183 272.951,336.183 266.765 C 336.183 260.579,336.091 258.450,335.814 258.172 C 335.612 257.970,335.446 257.374,335.446 256.849 C 335.446 256.323,335.313 255.811,335.151 255.711 C 334.989 255.611,334.856 255.205,334.856 254.809 C 334.856 254.414,334.724 254.090,334.562 254.090 C 334.399 254.090,334.267 253.692,334.267 253.206 C 334.267 252.719,334.134 252.321,333.972 252.321 C 333.810 252.321,333.677 252.056,333.677 251.732 C 333.677 251.408,333.569 251.142,333.437 251.142 C 333.306 251.142,333.016 250.678,332.793 250.111 C 332.570 249.543,332.300 249.079,332.193 249.079 C 332.086 249.079,331.769 248.581,331.489 247.973 C 331.208 247.366,330.450 246.404,329.803 245.836 C 329.156 245.269,328.062 244.241,327.371 243.552 C 326.680 242.863,325.988 242.299,325.834 242.299 C 325.680 242.299,325.363 242.034,325.129 241.710 C 324.895 241.385,324.468 241.120,324.180 241.120 C 323.891 241.120,323.655 241.002,323.655 240.858 C 323.655 240.714,323.191 240.509,322.623 240.403 C 322.056 240.296,321.592 240.082,321.592 239.928 C 321.592 239.773,321.194 239.646,320.707 239.646 C 320.221 239.646,319.823 239.514,319.823 239.352 C 319.823 239.189,319.425 239.057,318.939 239.057 C 318.452 239.057,318.055 238.924,318.055 238.762 C 318.055 238.600,317.458 238.467,316.728 238.467 C 315.999 238.467,315.402 238.335,315.402 238.172 C 315.402 237.986,313.338 237.878,309.801 237.878 C 306.264 237.878,304.200 237.986,304.200 238.172 C 304.200 238.335,303.736 238.467,303.169 238.467 C 302.601 238.467,302.137 238.600,302.137 238.762 C 302.137 238.924,301.739 239.057,301.253 239.057 C 300.766 239.057,300.368 239.162,300.368 239.291 C 300.368 239.420,299.772 239.772,299.042 240.072 C 298.312 240.373,297.716 240.732,297.716 240.870 C 297.716 241.007,297.506 241.120,297.250 241.120 C 296.994 241.120,296.275 241.651,295.652 242.299 C 295.029 242.948,294.406 243.478,294.267 243.478 C 294.127 243.478,293.823 243.744,293.589 244.068 C 293.355 244.392,293.061 244.657,292.934 244.657 C 292.808 244.657,292.704 238.489,292.704 230.951 L 292.704 217.244 286.809 217.244 L 280.914 217.244 280.914 255.269 M0.000 255.564 L 0.000 293.294 19.307 293.294 C 31.982 293.294,38.615 293.193,38.615 292.999 C 38.615 292.837,39.250 292.704,40.026 292.704 C 41.643 292.704,44.904 291.930,45.050 291.511 C 45.104 291.357,45.535 291.231,46.008 291.231 C 46.481 291.231,46.868 291.098,46.868 290.936 C 46.868 290.774,47.104 290.641,47.393 290.641 C 47.681 290.641,48.108 290.376,48.342 290.052 C 48.576 289.727,48.874 289.462,49.005 289.462 C 49.136 289.462,49.670 289.062,50.193 288.572 C 50.715 288.083,51.681 287.187,52.339 286.582 C 53.508 285.508,54.532 283.872,54.532 283.079 C 54.532 282.861,54.665 282.682,54.827 282.682 C 54.989 282.682,55.122 282.483,55.122 282.240 C 55.122 281.997,55.254 281.798,55.416 281.798 C 55.578 281.798,55.711 281.533,55.711 281.209 C 55.711 280.884,55.844 280.619,56.006 280.619 C 56.168 280.619,56.301 280.221,56.301 279.735 C 56.301 279.248,56.433 278.850,56.595 278.850 C 56.758 278.850,56.890 278.527,56.890 278.131 C 56.890 277.735,57.023 277.329,57.185 277.229 C 57.347 277.129,57.480 276.325,57.480 275.443 C 57.480 274.561,57.612 273.839,57.775 273.839 C 58.171 273.839,58.171 265.389,57.775 265.144 C 57.612 265.044,57.480 264.372,57.480 263.652 C 57.480 262.932,57.347 262.343,57.185 262.343 C 57.023 262.343,56.890 261.945,56.890 261.459 C 56.890 260.973,56.758 260.575,56.595 260.575 C 56.433 260.575,56.301 260.243,56.301 259.838 C 56.301 259.433,56.168 259.101,56.006 259.101 C 55.844 259.101,55.711 258.836,55.711 258.511 C 55.711 258.187,55.578 257.922,55.416 257.922 C 55.254 257.922,55.122 257.657,55.122 257.332 C 55.122 257.008,55.004 256.743,54.860 256.743 C 54.717 256.743,54.387 256.295,54.127 255.747 C 53.867 255.199,53.256 254.436,52.769 254.052 C 52.283 253.667,51.883 253.121,51.882 252.837 C 51.880 252.553,51.665 252.321,51.403 252.321 C 51.141 252.321,50.484 251.837,49.942 251.246 C 48.886 250.093,48.914 249.622,50.087 248.793 C 50.424 248.554,50.700 248.123,50.700 247.835 C 50.700 247.546,50.833 247.310,50.995 247.310 C 51.157 247.310,51.290 247.045,51.290 246.721 C 51.290 246.396,51.422 246.131,51.584 246.131 C 51.746 246.131,51.879 245.866,51.879 245.542 C 51.879 245.217,52.012 244.952,52.174 244.952 C 52.336 244.952,52.469 244.620,52.469 244.215 C 52.469 243.810,52.601 243.478,52.763 243.478 C 52.926 243.478,53.058 242.948,53.058 242.299 C 53.058 241.651,53.191 241.120,53.353 241.120 C 53.535 241.120,53.648 239.548,53.648 236.993 C 53.648 234.439,53.535 232.867,53.353 232.867 C 53.191 232.867,53.058 232.402,53.058 231.835 C 53.058 231.268,52.926 230.803,52.763 230.803 C 52.601 230.803,52.469 230.405,52.469 229.919 C 52.469 229.433,52.336 229.035,52.174 229.035 C 52.012 229.035,51.879 228.769,51.879 228.445 C 51.879 228.121,51.746 227.856,51.584 227.856 C 51.422 227.856,51.290 227.620,51.290 227.331 C 51.290 227.043,51.024 226.615,50.700 226.382 C 50.376 226.148,50.111 225.848,50.111 225.715 C 50.111 224.880,46.751 221.850,45.140 221.232 C 44.307 220.913,43.626 220.548,43.626 220.421 C 43.626 220.295,43.360 220.192,43.036 220.192 C 42.712 220.192,42.447 220.059,42.447 219.897 C 42.447 219.735,42.049 219.602,41.562 219.602 C 41.076 219.602,40.678 219.469,40.678 219.307 C 40.678 219.145,40.214 219.013,39.646 219.013 C 39.079 219.013,38.615 218.880,38.615 218.718 C 38.615 218.552,37.785 218.423,36.716 218.423 C 35.672 218.423,34.735 218.290,34.635 218.128 C 34.517 217.937,28.393 217.833,17.227 217.833 L 0.000 217.833 0.000 255.564 M73.987 219.307 C 73.987 219.469,73.715 219.602,73.384 219.602 C 73.052 219.602,72.474 219.901,72.098 220.265 C 71.722 220.630,71.132 221.124,70.785 221.362 C 70.396 221.629,70.155 222.110,70.155 222.615 C 70.155 223.065,70.022 223.434,69.860 223.434 C 69.687 223.434,69.565 224.466,69.565 225.940 C 69.565 227.413,69.687 228.445,69.860 228.445 C 70.022 228.445,70.155 228.843,70.155 229.329 C 70.155 229.816,70.287 230.214,70.450 230.214 C 70.612 230.214,70.744 230.356,70.744 230.530 C 70.744 230.999,71.520 231.688,72.050 231.688 C 72.304 231.688,72.513 231.820,72.513 231.982 C 72.513 232.144,72.712 232.277,72.955 232.277 C 73.198 232.277,73.397 232.410,73.397 232.572 C 73.397 232.748,74.527 232.867,76.197 232.867 C 77.868 232.867,78.998 232.748,78.998 232.572 C 78.998 232.410,79.343 232.277,79.764 232.277 C 80.721 232.277,82.240 230.721,82.240 229.740 C 82.240 229.352,82.373 229.035,82.535 229.035 C 82.713 229.035,82.830 227.806,82.830 225.940 C 82.830 224.237,82.714 222.845,82.572 222.845 C 82.430 222.845,82.233 222.439,82.134 221.943 C 81.927 220.911,81.314 220.192,80.640 220.192 C 80.385 220.192,80.177 220.059,80.177 219.897 C 80.177 219.735,79.779 219.602,79.293 219.602 C 78.806 219.602,78.408 219.469,78.408 219.307 C 78.408 219.137,77.475 219.013,76.197 219.013 C 74.920 219.013,73.987 219.137,73.987 219.307 M34.783 229.329 C 34.783 229.492,35.247 229.624,35.814 229.624 C 36.382 229.624,36.846 229.745,36.846 229.893 C 36.846 230.041,37.353 230.248,37.972 230.352 C 38.616 230.461,39.279 230.803,39.520 231.151 C 39.751 231.486,40.107 231.933,40.310 232.145 C 40.512 232.356,40.678 232.738,40.678 232.993 C 40.678 233.248,40.811 233.456,40.973 233.456 C 41.135 233.456,41.268 233.788,41.268 234.193 C 41.268 234.598,41.400 234.930,41.562 234.930 C 41.737 234.930,41.857 236.011,41.857 237.583 C 41.857 239.042,41.756 240.236,41.632 240.236 C 41.508 240.236,41.188 240.733,40.921 241.341 C 40.227 242.919,38.618 244.545,37.508 244.789 C 36.986 244.904,36.482 245.120,36.390 245.270 C 36.297 245.419,35.765 245.542,35.207 245.542 C 34.650 245.542,34.193 245.674,34.193 245.836 C 34.193 246.028,30.214 246.131,22.845 246.131 L 11.496 246.131 11.496 237.583 L 11.496 229.035 23.139 229.035 C 30.705 229.035,34.783 229.138,34.783 229.329 M369.934 237.583 C 369.934 237.759,368.804 237.878,367.133 237.878 C 365.463 237.878,364.333 237.997,364.333 238.172 C 364.333 238.335,363.670 238.467,362.859 238.467 C 362.049 238.467,361.385 238.600,361.385 238.762 C 361.385 238.924,361.054 239.057,360.648 239.057 C 360.243 239.057,359.912 239.189,359.912 239.352 C 359.912 239.514,359.514 239.646,359.027 239.646 C 358.541 239.646,358.143 239.779,358.143 239.941 C 358.143 240.103,357.931 240.236,357.672 240.236 C 356.981 240.236,355.122 241.155,354.571 241.768 C 354.309 242.060,353.931 242.299,353.731 242.299 C 353.532 242.299,352.997 242.697,352.542 243.183 C 352.088 243.670,351.594 244.068,351.446 244.068 C 351.297 244.068,350.887 244.399,350.534 244.805 C 350.182 245.210,349.760 245.542,349.597 245.542 C 349.433 245.542,349.300 245.754,349.300 246.013 C 349.300 246.272,348.902 246.856,348.416 247.310 C 347.929 247.765,347.531 248.348,347.531 248.608 C 347.531 248.867,347.431 249.079,347.309 249.079 C 347.186 249.079,346.904 249.510,346.682 250.037 C 346.460 250.564,346.096 251.380,345.873 251.851 C 345.650 252.321,345.468 253.018,345.468 253.398 C 345.468 253.779,345.335 254.090,345.173 254.090 C 345.011 254.090,344.878 254.422,344.878 254.827 C 344.878 255.232,344.746 255.564,344.584 255.564 C 344.422 255.564,344.289 256.227,344.289 257.038 C 344.289 257.848,344.156 258.511,343.994 258.511 C 343.828 258.511,343.699 259.347,343.699 260.427 C 343.699 261.508,343.571 262.343,343.405 262.343 C 343.220 262.343,343.110 264.112,343.110 267.060 C 343.110 270.007,343.220 271.776,343.405 271.776 C 343.567 271.776,343.699 272.506,343.699 273.397 C 343.699 274.289,343.832 275.018,343.994 275.018 C 344.156 275.018,344.289 275.615,344.289 276.345 C 344.289 277.074,344.422 277.671,344.584 277.671 C 344.746 277.671,344.878 278.069,344.878 278.556 C 344.878 279.042,345.011 279.440,345.173 279.440 C 345.335 279.440,345.468 279.838,345.468 280.324 C 345.468 280.811,345.586 281.209,345.730 281.209 C 345.874 281.209,346.074 281.644,346.173 282.176 C 346.273 282.708,346.620 283.334,346.943 283.568 C 347.267 283.801,347.531 284.174,347.531 284.398 C 347.531 284.621,347.929 285.176,348.416 285.630 C 348.902 286.084,349.300 286.578,349.300 286.727 C 349.300 287.011,350.651 288.283,350.953 288.283 C 351.048 288.283,351.499 288.681,351.953 289.167 C 352.407 289.654,352.962 290.052,353.185 290.052 C 353.409 290.052,353.783 290.317,354.016 290.641 C 354.250 290.965,354.677 291.231,354.966 291.231 C 355.254 291.231,355.490 291.343,355.490 291.481 C 355.490 291.793,358.260 292.704,359.208 292.704 C 359.595 292.704,359.912 292.837,359.912 292.999 C 359.912 293.161,360.243 293.294,360.648 293.294 C 361.054 293.294,361.385 293.427,361.385 293.589 C 361.385 293.753,362.171 293.884,363.154 293.884 C 364.137 293.884,364.923 294.015,364.923 294.178 C 364.923 294.367,367.477 294.473,371.997 294.473 C 376.517 294.473,379.071 294.367,379.071 294.178 C 379.071 294.016,379.735 293.884,380.545 293.884 C 381.356 293.884,382.019 293.751,382.019 293.589 C 382.019 293.427,382.351 293.294,382.756 293.294 C 383.161 293.294,383.493 293.161,383.493 292.999 C 383.493 292.837,383.954 292.704,384.517 292.704 C 385.664 292.704,388.693 291.394,389.423 290.582 C 389.685 290.290,390.063 290.052,390.263 290.052 C 390.462 290.052,390.997 289.654,391.452 289.167 C 391.906 288.681,392.356 288.283,392.452 288.283 C 392.753 288.283,394.105 287.011,394.105 286.727 C 394.105 286.578,394.503 286.084,394.989 285.630 C 395.475 285.176,395.873 284.592,395.873 284.333 C 395.873 284.074,396.006 283.861,396.168 283.861 C 396.330 283.861,396.463 283.662,396.463 283.419 C 396.463 283.176,396.714 282.726,397.021 282.419 C 397.328 282.112,397.672 281.316,397.784 280.650 C 397.896 279.985,398.109 279.440,398.257 279.440 C 398.405 279.440,398.526 278.976,398.526 278.408 C 398.526 277.841,398.659 277.377,398.821 277.377 C 398.983 277.377,399.116 276.857,399.116 276.222 C 399.116 275.567,399.273 275.015,399.480 274.946 C 399.758 274.853,399.845 272.905,399.845 266.765 C 399.845 260.625,399.758 258.676,399.480 258.584 C 399.257 258.509,399.116 257.902,399.116 257.013 C 399.116 256.216,398.983 255.564,398.821 255.564 C 398.659 255.564,398.526 255.232,398.526 254.827 C 398.526 254.422,398.394 254.090,398.231 254.090 C 398.069 254.090,397.937 253.738,397.937 253.309 C 397.937 252.517,396.531 249.308,396.105 249.128 C 395.978 249.074,395.873 248.829,395.873 248.583 C 395.873 248.337,395.475 247.765,394.989 247.310 C 394.503 246.856,394.105 246.272,394.105 246.013 C 394.105 245.754,393.971 245.542,393.808 245.542 C 393.645 245.542,393.223 245.210,392.870 244.805 C 392.518 244.399,392.108 244.068,391.959 244.068 C 391.810 244.068,391.317 243.670,390.862 243.183 C 390.408 242.697,389.873 242.299,389.673 242.299 C 389.473 242.299,389.096 242.060,388.833 241.768 C 388.282 241.155,386.423 240.236,385.733 240.236 C 385.474 240.236,385.262 240.103,385.262 239.941 C 385.262 239.779,384.864 239.646,384.377 239.646 C 383.891 239.646,383.493 239.514,383.493 239.352 C 383.493 239.189,383.029 239.057,382.461 239.057 C 381.894 239.057,381.430 238.924,381.430 238.762 C 381.430 238.600,380.899 238.467,380.251 238.467 C 379.602 238.467,379.071 238.335,379.071 238.172 C 379.071 237.998,377.996 237.878,376.436 237.878 C 374.986 237.878,373.718 237.745,373.618 237.583 C 373.518 237.421,372.648 237.288,371.685 237.288 C 370.714 237.288,369.934 237.419,369.934 237.583 M70.744 266.175 L 70.744 293.294 76.345 293.294 L 81.945 293.294 81.945 266.175 L 81.945 239.057 76.345 239.057 L 70.744 239.057 70.744 266.175 M159.536 244.289 L 159.617 249.521 176.587 249.668 C 194.779 249.826,194.547 249.806,194.547 251.269 C 194.547 251.523,194.679 251.732,194.842 251.732 C 195.004 251.732,195.136 252.316,195.136 253.031 L 195.136 254.330 193.589 254.498 C 189.355 254.957,188.778 255.048,188.519 255.296 C 188.365 255.443,187.668 255.564,186.971 255.564 C 186.274 255.564,185.704 255.696,185.704 255.859 C 185.704 256.021,185.041 256.153,184.230 256.153 C 183.419 256.153,182.756 256.286,182.756 256.448 C 182.756 256.610,182.292 256.743,181.724 256.743 C 181.157 256.743,180.693 256.875,180.693 257.038 C 180.693 257.200,180.295 257.332,179.808 257.332 C 179.322 257.332,178.924 257.465,178.924 257.627 C 178.924 257.789,178.526 257.922,178.040 257.922 C 177.553 257.922,177.155 258.055,177.155 258.217 C 177.155 258.379,176.824 258.511,176.419 258.511 C 176.013 258.511,175.682 258.644,175.682 258.806 C 175.682 258.968,175.365 259.101,174.979 259.101 C 174.030 259.101,171.260 260.013,171.260 260.325 C 171.260 260.462,170.995 260.575,170.671 260.575 C 170.346 260.575,170.081 260.707,170.081 260.870 C 170.081 261.032,169.816 261.164,169.492 261.164 C 169.167 261.164,168.902 261.297,168.902 261.459 C 168.902 261.621,168.637 261.754,168.312 261.754 C 167.988 261.754,167.723 261.887,167.723 262.049 C 167.723 262.211,167.524 262.343,167.281 262.343 C 167.038 262.343,166.839 262.476,166.839 262.638 C 166.839 262.800,166.634 262.933,166.384 262.933 C 166.133 262.933,165.571 263.265,165.134 263.670 C 164.697 264.075,164.210 264.407,164.051 264.407 C 163.766 264.407,160.059 268.123,160.059 268.409 C 160.059 268.491,159.794 268.843,159.469 269.191 C 159.145 269.539,158.880 269.998,158.880 270.210 C 158.880 270.423,158.747 270.597,158.585 270.597 C 158.423 270.597,158.290 270.851,158.290 271.162 C 158.290 271.473,158.155 271.772,157.990 271.827 C 157.825 271.882,157.608 272.623,157.507 273.473 C 157.406 274.323,157.210 275.018,157.070 275.018 C 156.931 275.018,156.817 276.146,156.817 277.524 C 156.817 278.902,156.930 280.029,157.069 280.029 C 157.207 280.029,157.404 280.915,157.505 281.998 C 157.606 283.081,157.824 284.102,157.989 284.268 C 158.155 284.433,158.290 284.808,158.290 285.099 C 158.290 285.391,158.423 285.630,158.585 285.630 C 158.747 285.630,158.880 285.804,158.880 286.017 C 158.880 286.446,159.647 287.316,160.609 287.980 C 160.955 288.218,161.238 288.649,161.238 288.938 C 161.238 289.266,161.459 289.462,161.828 289.462 C 162.152 289.462,162.417 289.574,162.417 289.712 C 162.417 290.177,163.515 291.231,163.999 291.231 C 164.264 291.231,164.480 291.340,164.480 291.474 C 164.480 291.784,167.732 293.294,168.400 293.294 C 168.676 293.294,168.902 293.427,168.902 293.589 C 168.902 293.751,169.422 293.884,170.056 293.884 C 170.691 293.884,171.262 294.037,171.325 294.225 C 171.405 294.466,172.979 294.566,176.713 294.566 C 180.447 294.566,182.021 294.466,182.102 294.225 C 182.164 294.037,182.603 293.884,183.075 293.884 C 183.548 293.884,183.935 293.751,183.935 293.589 C 183.935 293.427,184.176 293.294,184.470 293.294 C 184.763 293.294,185.691 292.962,186.531 292.557 C 187.372 292.152,188.173 291.820,188.312 291.820 C 188.450 291.820,188.980 291.422,189.489 290.936 C 189.998 290.450,190.486 290.052,190.573 290.052 C 190.784 290.052,193.368 287.459,193.368 287.247 C 193.368 287.155,193.633 286.794,193.957 286.446 C 194.282 286.098,194.547 285.640,194.547 285.427 C 194.547 285.214,194.679 285.041,194.842 285.041 C 195.004 285.041,195.137 285.671,195.138 286.441 C 195.142 289.787,197.323 292.704,199.821 292.704 C 200.143 292.704,200.489 292.837,200.590 292.999 C 200.702 293.181,203.196 293.294,207.092 293.294 L 213.412 293.294 213.412 288.136 L 213.412 282.977 210.443 282.977 C 206.222 282.977,206.632 284.671,206.632 267.228 C 206.632 257.487,206.530 252.321,206.338 252.321 C 206.160 252.321,206.043 251.093,206.043 249.226 C 206.043 247.359,205.926 246.131,205.748 246.131 C 205.586 246.131,205.453 245.800,205.453 245.394 C 205.453 244.989,205.321 244.657,205.158 244.657 C 204.996 244.657,204.864 244.401,204.864 244.087 C 204.864 243.063,202.129 240.572,200.764 240.353 C 200.100 240.247,199.558 240.045,199.558 239.903 C 199.558 239.762,198.895 239.646,198.084 239.646 C 197.273 239.646,196.610 239.514,196.610 239.352 C 196.610 239.158,190.221 239.057,178.033 239.057 L 159.456 239.057 159.536 244.289 M221.143 244.289 L 221.223 249.521 238.194 249.668 C 257.182 249.833,255.943 249.678,256.475 251.966 C 257.058 254.475,257.382 254.267,251.953 254.874 C 251.183 254.961,250.553 255.151,250.553 255.297 C 250.553 255.444,249.823 255.564,248.931 255.564 C 248.040 255.564,247.310 255.696,247.310 255.859 C 247.310 256.021,246.780 256.153,246.131 256.153 C 245.483 256.153,244.952 256.286,244.952 256.448 C 244.952 256.610,244.496 256.743,243.938 256.743 C 243.380 256.743,242.842 256.875,242.741 257.038 C 242.641 257.200,242.103 257.332,241.545 257.332 C 240.987 257.332,240.531 257.465,240.531 257.627 C 240.531 257.789,240.133 257.922,239.646 257.922 C 239.160 257.922,238.762 258.055,238.762 258.217 C 238.762 258.379,238.430 258.511,238.025 258.511 C 237.620 258.511,237.288 258.644,237.288 258.806 C 237.288 258.968,236.923 259.102,236.478 259.103 C 236.032 259.104,235.287 259.303,234.823 259.545 C 234.358 259.787,233.728 259.985,233.422 259.985 C 233.117 259.985,232.867 260.118,232.867 260.280 C 232.867 260.442,232.601 260.575,232.277 260.575 C 231.953 260.575,231.688 260.707,231.688 260.870 C 231.688 261.032,231.422 261.164,231.098 261.164 C 230.774 261.164,230.508 261.297,230.508 261.459 C 230.508 261.621,230.243 261.754,229.919 261.754 C 229.595 261.754,229.329 261.887,229.329 262.049 C 229.329 262.211,229.160 262.343,228.952 262.343 C 228.745 262.343,228.384 262.609,228.150 262.933 C 227.917 263.257,227.517 263.522,227.262 263.522 C 227.008 263.522,226.307 263.987,225.706 264.554 C 225.104 265.122,224.540 265.586,224.452 265.586 C 224.128 265.586,222.844 267.045,222.842 267.415 C 222.840 267.625,222.442 268.110,221.958 268.493 C 221.473 268.876,221.076 269.373,221.076 269.598 C 221.076 269.823,220.943 270.007,220.781 270.007 C 220.619 270.007,220.486 270.273,220.486 270.597 C 220.486 270.921,220.354 271.186,220.192 271.186 C 220.029 271.186,219.897 271.452,219.897 271.776 C 219.897 272.100,219.787 272.366,219.653 272.366 C 219.285 272.366,218.718 275.854,218.718 278.113 C 218.718 280.373,219.285 283.861,219.653 283.861 C 219.787 283.861,219.897 284.127,219.897 284.451 C 219.897 284.775,220.029 285.041,220.192 285.041 C 220.354 285.041,220.486 285.306,220.486 285.630 C 220.486 285.954,220.619 286.220,220.781 286.220 C 220.943 286.220,221.076 286.356,221.076 286.522 C 221.076 286.791,221.661 287.455,224.510 290.420 C 224.939 290.866,225.469 291.231,225.688 291.231 C 225.907 291.231,226.087 291.363,226.087 291.525 C 226.087 291.688,226.344 291.820,226.659 291.820 C 226.974 291.820,227.307 291.943,227.399 292.092 C 227.492 292.242,227.964 292.451,228.448 292.558 C 228.933 292.664,229.329 292.873,229.329 293.023 C 229.329 293.172,229.595 293.294,229.919 293.294 C 230.243 293.294,230.508 293.427,230.508 293.589 C 230.508 293.751,231.028 293.884,231.663 293.884 C 232.298 293.884,232.867 294.031,232.927 294.211 C 233.083 294.680,243.553 294.692,243.709 294.223 C 243.771 294.037,244.342 293.884,244.977 293.884 C 245.612 293.884,246.131 293.751,246.131 293.589 C 246.131 293.427,246.330 293.294,246.573 293.294 C 246.817 293.294,247.015 293.161,247.015 292.999 C 247.015 292.837,247.248 292.704,247.531 292.703 C 247.815 292.702,248.427 292.503,248.891 292.261 C 249.356 292.018,249.890 291.820,250.079 291.820 C 250.268 291.820,250.614 291.555,250.847 291.231 C 251.081 290.906,251.372 290.641,251.495 290.641 C 251.779 290.641,255.564 286.957,255.564 286.680 C 255.564 285.047,256.697 285.800,256.941 287.595 C 257.345 290.566,259.353 292.704,261.739 292.704 C 262.234 292.704,262.638 292.837,262.638 292.999 C 262.638 293.186,264.898 293.294,268.828 293.294 L 275.018 293.294 275.018 288.136 L 275.018 282.977 271.923 282.977 C 269.025 282.977,268.828 282.940,268.828 282.388 C 268.828 282.063,268.696 281.798,268.534 281.798 C 268.340 281.798,268.239 276.050,268.239 265.144 C 268.239 254.237,268.137 248.489,267.944 248.489 C 267.782 248.489,267.649 247.985,267.649 247.369 C 267.649 246.232,267.095 244.664,266.691 244.660 C 266.570 244.658,266.470 244.392,266.470 244.068 C 266.470 243.744,266.338 243.478,266.175 243.478 C 266.013 243.478,265.881 243.236,265.881 242.940 C 265.881 242.350,264.723 241.120,264.167 241.120 C 263.975 241.120,263.817 240.996,263.817 240.843 C 263.817 240.691,263.219 240.477,262.487 240.367 C 261.756 240.258,261.085 240.050,260.996 239.907 C 260.907 239.764,260.378 239.646,259.820 239.646 C 259.263 239.646,258.806 239.514,258.806 239.352 C 258.806 239.158,252.319 239.057,239.934 239.057 L 221.062 239.057 221.143 244.289 M123.508 248.195 C 123.508 248.357,124.237 248.489,125.129 248.489 C 126.021 248.489,126.750 248.622,126.750 248.784 C 126.750 248.946,127.077 249.079,127.477 249.079 C 129.178 249.079,135.004 253.764,135.004 255.131 C 135.004 255.369,135.136 255.564,135.298 255.564 C 135.461 255.564,135.593 255.829,135.593 256.153 C 135.593 256.478,135.726 256.743,135.888 256.743 C 136.050 256.743,136.183 257.008,136.183 257.332 C 136.183 257.657,136.315 257.922,136.478 257.922 C 136.640 257.922,136.772 258.254,136.772 258.659 C 136.772 259.064,136.905 259.396,137.067 259.396 C 137.229 259.396,137.362 259.926,137.362 260.575 C 137.362 261.223,137.494 261.754,137.657 261.754 C 137.841 261.754,137.951 263.522,137.951 266.470 C 137.951 269.418,137.841 271.186,137.657 271.186 C 137.494 271.186,137.362 271.717,137.362 272.366 C 137.362 273.014,137.229 273.545,137.067 273.545 C 136.905 273.545,136.772 273.876,136.772 274.282 C 136.772 274.687,136.640 275.018,136.478 275.018 C 136.315 275.018,136.183 275.284,136.183 275.608 C 136.183 275.932,136.050 276.197,135.888 276.197 C 135.726 276.197,135.593 276.434,135.593 276.722 C 135.593 277.010,135.328 277.438,135.004 277.671 C 134.679 277.905,134.414 278.257,134.414 278.454 C 134.414 278.985,131.578 281.798,131.043 281.798 C 130.790 281.798,130.582 281.931,130.582 282.093 C 130.582 282.255,130.383 282.388,130.140 282.388 C 129.897 282.388,129.698 282.512,129.698 282.664 C 129.698 282.817,129.099 283.031,128.368 283.140 C 127.636 283.250,126.965 283.457,126.877 283.601 C 126.788 283.744,126.126 283.861,125.406 283.861 C 124.686 283.861,124.097 283.994,124.097 284.156 C 124.097 284.320,123.311 284.451,122.329 284.451 C 121.346 284.451,120.560 284.320,120.560 284.156 C 120.560 283.994,119.831 283.861,118.939 283.861 C 118.047 283.861,117.318 283.744,117.318 283.601 C 117.318 283.457,116.588 283.249,115.696 283.137 C 114.805 283.026,114.075 282.812,114.075 282.661 C 114.075 282.511,113.863 282.388,113.604 282.388 C 113.345 282.388,112.761 281.990,112.307 281.503 C 111.852 281.017,111.268 280.619,111.009 280.619 C 110.750 280.619,110.538 280.492,110.538 280.338 C 110.538 280.183,110.206 279.725,109.801 279.319 C 109.396 278.914,109.064 278.473,109.064 278.339 C 109.064 278.206,108.799 277.905,108.475 277.671 C 108.150 277.438,107.885 277.010,107.885 276.722 C 107.885 276.434,107.752 276.197,107.590 276.197 C 107.428 276.197,107.296 275.932,107.296 275.608 C 107.296 275.284,107.163 275.018,107.001 275.018 C 106.839 275.018,106.706 274.698,106.706 274.306 C 106.706 273.914,106.540 273.538,106.338 273.471 C 106.057 273.377,105.969 271.710,105.969 266.470 C 105.969 261.230,106.057 259.563,106.338 259.469 C 106.540 259.402,106.706 259.026,106.706 258.634 C 106.706 258.242,106.839 257.922,107.001 257.922 C 107.163 257.922,107.296 257.657,107.296 257.332 C 107.296 257.008,107.428 256.743,107.590 256.743 C 107.752 256.743,107.885 256.478,107.885 256.153 C 107.885 255.829,108.018 255.564,108.180 255.564 C 108.342 255.564,108.475 255.388,108.475 255.173 C 108.475 254.690,111.878 251.142,112.342 251.142 C 112.528 251.142,112.894 250.905,113.156 250.615 C 113.418 250.325,114.429 249.844,115.402 249.547 C 116.374 249.249,117.401 248.889,117.682 248.747 C 117.964 248.605,118.992 248.489,119.967 248.489 C 120.952 248.489,121.739 248.358,121.739 248.195 C 121.739 248.032,122.137 247.900,122.623 247.900 C 123.110 247.900,123.508 248.032,123.508 248.195 M310.391 248.195 C 310.391 248.357,311.112 248.489,311.994 248.489 C 312.876 248.489,313.680 248.622,313.780 248.784 C 313.881 248.946,314.205 249.079,314.501 249.079 C 314.797 249.079,315.419 249.277,315.884 249.519 C 316.348 249.761,316.960 249.960,317.244 249.961 C 317.528 249.962,317.760 250.093,317.760 250.252 C 317.760 250.412,318.622 251.404,319.676 252.458 C 320.730 253.512,321.592 254.509,321.592 254.674 C 321.592 254.839,321.699 254.974,321.830 254.974 C 322.091 254.974,323.066 257.029,323.066 257.579 C 323.066 257.767,323.198 257.922,323.360 257.922 C 323.522 257.922,323.655 258.386,323.655 258.954 C 323.655 259.521,323.788 259.985,323.950 259.985 C 324.112 259.985,324.245 260.516,324.245 261.164 C 324.245 261.813,324.377 262.343,324.539 262.343 C 324.722 262.343,324.834 263.915,324.834 266.470 C 324.834 269.025,324.722 270.597,324.539 270.597 C 324.377 270.597,324.245 271.260,324.245 272.071 C 324.245 272.881,324.112 273.545,323.950 273.545 C 323.788 273.545,323.655 273.876,323.655 274.282 C 323.655 274.687,323.522 275.018,323.360 275.018 C 323.198 275.018,323.066 275.284,323.066 275.608 C 323.066 275.932,322.933 276.197,322.771 276.197 C 322.609 276.197,322.476 276.453,322.476 276.766 C 322.476 277.079,322.277 277.533,322.034 277.777 C 321.791 278.020,321.592 278.298,321.592 278.395 C 321.592 278.698,318.970 281.209,318.654 281.209 C 318.489 281.209,318.189 281.474,317.986 281.798 C 317.784 282.122,317.385 282.388,317.099 282.388 C 316.814 282.388,316.581 282.512,316.581 282.664 C 316.581 282.817,315.982 283.031,315.251 283.140 C 314.519 283.250,313.848 283.457,313.759 283.601 C 313.671 283.744,313.009 283.861,312.289 283.861 C 311.569 283.861,310.980 283.994,310.980 284.156 C 310.980 284.318,310.258 284.451,309.376 284.451 C 308.494 284.451,307.690 284.318,307.590 284.156 C 307.490 283.994,306.686 283.861,305.804 283.861 C 304.922 283.861,304.200 283.738,304.200 283.588 C 304.200 283.437,303.471 283.223,302.579 283.112 C 301.688 283.000,300.958 282.792,300.958 282.648 C 300.958 282.505,300.722 282.388,300.434 282.388 C 300.145 282.388,299.718 282.122,299.484 281.798 C 299.250 281.474,298.952 281.209,298.822 281.209 C 298.512 281.209,295.947 278.643,295.947 278.334 C 295.947 278.203,295.682 277.905,295.357 277.671 C 295.033 277.438,294.768 277.010,294.768 276.722 C 294.768 276.434,294.647 276.197,294.499 276.197 C 294.351 276.197,294.141 275.668,294.031 275.020 C 293.922 274.372,293.711 273.768,293.563 273.676 C 293.415 273.585,293.294 272.987,293.294 272.348 C 293.294 271.709,293.161 271.186,292.999 271.186 C 292.815 271.186,292.704 269.418,292.704 266.470 C 292.704 263.522,292.815 261.754,292.999 261.754 C 293.161 261.754,293.294 261.223,293.294 260.575 C 293.294 259.926,293.412 259.396,293.555 259.396 C 293.699 259.396,293.906 258.799,294.016 258.069 C 294.125 257.340,294.339 256.743,294.491 256.743 C 294.643 256.743,294.768 256.478,294.768 256.153 C 294.768 255.829,294.901 255.564,295.063 255.564 C 295.225 255.564,295.357 255.298,295.357 254.974 C 295.357 254.650,295.466 254.385,295.599 254.385 C 295.902 254.385,298.303 252.053,298.886 251.193 C 299.124 250.841,299.556 250.553,299.844 250.553 C 300.132 250.553,300.368 250.453,300.368 250.330 C 300.368 250.059,302.221 249.381,303.540 249.168 C 304.068 249.083,304.574 248.896,304.663 248.752 C 304.752 248.607,305.546 248.489,306.429 248.489 C 307.311 248.489,308.032 248.357,308.032 248.195 C 308.032 248.032,308.563 247.900,309.211 247.900 C 309.860 247.900,310.391 248.032,310.391 248.195 M371.997 248.195 C 371.997 248.365,372.930 248.489,374.208 248.489 C 375.485 248.489,376.419 248.614,376.419 248.784 C 376.419 248.946,376.916 249.083,377.524 249.088 C 378.132 249.093,378.887 249.292,379.202 249.530 C 379.516 249.768,380.014 249.963,380.307 249.963 C 380.600 249.963,380.840 250.096,380.840 250.258 C 380.840 250.420,381.053 250.553,381.313 250.553 C 381.815 250.553,385.255 254.029,385.259 254.541 C 385.261 254.708,385.527 255.035,385.851 255.269 C 386.175 255.503,386.441 255.930,386.441 256.218 C 386.441 256.507,386.573 256.743,386.735 256.743 C 386.898 256.743,387.030 257.008,387.030 257.332 C 387.030 257.657,387.163 257.922,387.325 257.922 C 387.487 257.922,387.620 258.375,387.620 258.929 C 387.620 259.483,387.786 259.991,387.988 260.059 C 388.268 260.153,388.357 261.761,388.357 266.765 C 388.357 271.770,388.268 273.378,387.988 273.471 C 387.786 273.538,387.620 273.914,387.620 274.306 C 387.620 274.698,387.487 275.018,387.325 275.018 C 387.163 275.018,387.030 275.254,387.030 275.543 C 387.030 275.831,386.765 276.259,386.441 276.492 C 386.116 276.726,385.851 277.064,385.851 277.242 C 385.851 277.750,381.800 281.798,381.292 281.798 C 381.044 281.798,380.840 281.931,380.840 282.093 C 380.840 282.255,380.575 282.388,380.251 282.388 C 379.926 282.388,379.661 282.514,379.661 282.668 C 379.661 282.822,378.862 283.038,377.886 283.149 C 376.909 283.259,376.039 283.465,375.952 283.606 C 375.865 283.746,373.953 283.861,371.702 283.861 C 369.452 283.861,367.539 283.746,367.452 283.606 C 367.365 283.465,366.495 283.259,365.519 283.149 C 364.542 283.038,363.744 282.822,363.744 282.668 C 363.744 282.514,363.478 282.388,363.154 282.388 C 362.830 282.388,362.564 282.255,362.564 282.093 C 362.564 281.931,362.328 281.798,362.040 281.798 C 361.752 281.798,361.324 281.533,361.091 281.209 C 360.857 280.884,360.558 280.619,360.426 280.619 C 360.114 280.619,358.143 278.648,358.143 278.336 C 358.143 278.204,357.878 277.905,357.553 277.671 C 357.229 277.438,356.964 277.010,356.964 276.722 C 356.964 276.434,356.831 276.197,356.669 276.197 C 356.507 276.197,356.374 275.932,356.374 275.608 C 356.374 275.284,356.242 275.018,356.080 275.018 C 355.917 275.018,355.785 274.698,355.785 274.306 C 355.785 273.914,355.619 273.538,355.416 273.471 C 355.136 273.377,355.048 271.710,355.048 266.470 C 355.048 261.230,355.136 259.563,355.416 259.469 C 355.619 259.402,355.785 259.026,355.785 258.634 C 355.785 258.242,355.917 257.922,356.080 257.922 C 356.242 257.922,356.374 257.553,356.374 257.103 C 356.374 256.622,356.618 256.108,356.964 255.859 C 357.288 255.625,357.553 255.287,357.553 255.108 C 357.553 254.601,361.605 250.553,362.112 250.553 C 362.361 250.553,362.564 250.420,362.564 250.258 C 362.564 250.096,362.804 249.963,363.098 249.963 C 363.391 249.963,363.888 249.768,364.203 249.530 C 364.518 249.292,365.273 249.093,365.881 249.088 C 366.489 249.083,366.986 248.946,366.986 248.784 C 366.986 248.614,367.919 248.489,369.197 248.489 C 370.474 248.489,371.408 248.365,371.408 248.195 C 371.408 248.032,371.540 247.900,371.702 247.900 C 371.864 247.900,371.997 248.032,371.997 248.195 M39.204 257.627 C 39.204 257.789,39.469 257.922,39.794 257.922 C 40.118 257.922,40.383 258.055,40.383 258.217 C 40.383 258.379,40.554 258.511,40.763 258.511 C 41.327 258.511,44.215 261.321,44.215 261.870 C 44.215 262.130,44.343 262.343,44.500 262.343 C 44.656 262.343,44.873 263.010,44.981 263.824 C 45.089 264.638,45.292 265.375,45.433 265.462 C 45.766 265.668,45.768 273.545,45.435 273.545 C 45.296 273.545,45.099 274.240,44.999 275.090 C 44.898 275.940,44.680 276.681,44.515 276.736 C 44.350 276.791,44.215 277.090,44.215 277.401 C 44.215 277.712,44.083 277.966,43.920 277.966 C 43.758 277.966,43.626 278.103,43.626 278.271 C 43.626 278.763,41.766 280.479,40.740 280.934 C 40.219 281.164,39.794 281.453,39.794 281.575 C 39.794 281.698,39.396 281.798,38.909 281.798 C 38.423 281.798,38.025 281.931,38.025 282.093 C 38.025 282.285,33.407 282.388,24.761 282.388 L 11.496 282.388 11.496 269.860 L 11.496 257.332 25.350 257.332 C 34.390 257.332,39.204 257.435,39.204 257.627 M195.136 267.502 C 195.136 269.762,195.022 271.186,194.842 271.186 C 194.679 271.186,194.547 271.452,194.547 271.776 C 194.547 272.100,194.414 272.366,194.252 272.366 C 194.090 272.366,193.957 272.631,193.957 272.955 C 193.957 273.279,193.825 273.545,193.662 273.545 C 193.500 273.545,193.368 273.677,193.368 273.839 C 193.368 274.001,192.837 274.680,192.189 275.348 C 191.540 276.017,191.010 276.746,191.010 276.970 C 191.010 277.194,190.878 277.377,190.717 277.377 C 190.464 277.377,189.787 277.880,188.539 278.998 C 188.357 279.160,187.845 279.481,187.399 279.711 C 186.953 279.941,186.588 280.239,186.588 280.374 C 186.588 280.509,186.389 280.619,186.146 280.619 C 185.903 280.619,185.704 280.752,185.704 280.914 C 185.704 281.076,185.438 281.209,185.114 281.209 C 184.790 281.209,184.525 281.341,184.525 281.503 C 184.525 281.665,184.127 281.798,183.640 281.798 C 183.154 281.798,182.756 281.931,182.756 282.093 C 182.756 282.255,182.424 282.388,182.019 282.388 C 181.614 282.388,181.282 282.520,181.282 282.682 C 181.282 282.862,179.956 282.977,177.892 282.977 C 175.829 282.977,174.503 282.862,174.503 282.682 C 174.503 282.520,174.105 282.388,173.618 282.388 C 173.132 282.388,172.734 282.255,172.734 282.093 C 172.734 281.931,172.579 281.798,172.389 281.798 C 171.898 281.798,169.492 279.223,169.492 278.698 C 169.492 278.458,169.359 278.261,169.197 278.261 C 169.035 278.261,168.902 277.929,168.902 277.524 C 168.902 277.119,169.035 276.787,169.197 276.787 C 169.359 276.787,169.492 276.418,169.492 275.968 C 169.492 275.487,169.735 274.973,170.081 274.724 C 170.405 274.490,170.671 274.072,170.671 273.794 C 170.671 273.517,170.920 273.210,171.226 273.113 C 171.531 273.016,172.193 272.543,172.697 272.062 C 173.201 271.580,173.813 271.186,174.058 271.186 C 174.302 271.186,174.503 271.079,174.503 270.947 C 174.503 270.815,174.967 270.525,175.534 270.302 C 176.102 270.079,176.566 269.789,176.566 269.658 C 176.566 269.526,176.831 269.418,177.155 269.418 C 177.480 269.418,177.745 269.308,177.745 269.173 C 177.745 268.947,179.395 268.429,181.356 268.038 C 181.802 267.950,182.167 267.759,182.167 267.616 C 182.167 267.472,182.564 267.354,183.051 267.354 C 183.537 267.354,183.935 267.222,183.935 267.060 C 183.935 266.898,184.267 266.765,184.672 266.765 C 185.077 266.765,185.409 266.632,185.409 266.470 C 185.409 266.308,185.807 266.175,186.293 266.175 C 186.780 266.175,187.178 266.043,187.178 265.881 C 187.178 265.718,187.708 265.586,188.357 265.586 C 189.005 265.586,189.536 265.453,189.536 265.291 C 189.536 265.129,190.133 264.996,190.862 264.996 C 191.592 264.996,192.189 264.864,192.189 264.702 C 192.189 264.539,192.719 264.407,193.368 264.407 C 194.016 264.407,194.547 264.274,194.547 264.112 C 194.547 263.950,194.679 263.817,194.842 263.817 C 195.022 263.817,195.136 265.242,195.136 267.502 M256.461 270.450 C 256.288 271.746,256.016 272.852,255.855 272.906 C 255.695 272.960,255.564 273.139,255.564 273.303 C 255.564 273.468,255.166 273.975,254.679 274.429 C 254.193 274.883,253.795 275.408,253.795 275.596 C 253.795 276.002,251.262 278.556,250.859 278.556 C 250.705 278.556,250.248 278.887,249.843 279.293 C 249.437 279.698,248.901 280.029,248.650 280.029 C 248.400 280.029,248.195 280.162,248.195 280.324 C 248.195 280.486,247.996 280.619,247.752 280.619 C 247.509 280.619,247.310 280.752,247.310 280.914 C 247.310 281.076,247.045 281.209,246.721 281.209 C 246.396 281.209,246.131 281.341,246.131 281.503 C 246.131 281.665,245.866 281.798,245.542 281.798 C 245.217 281.798,244.952 281.931,244.952 282.093 C 244.952 282.255,244.496 282.388,243.938 282.388 C 243.380 282.388,242.842 282.520,242.741 282.682 C 242.640 282.847,241.264 282.977,239.629 282.977 C 237.872 282.977,236.699 282.859,236.699 282.682 C 236.699 282.520,236.301 282.388,235.814 282.388 C 235.328 282.388,234.930 282.255,234.930 282.093 C 234.930 281.931,234.665 281.798,234.340 281.798 C 234.016 281.798,233.751 281.665,233.751 281.503 C 233.751 281.341,233.612 281.209,233.443 281.209 C 233.073 281.209,231.978 280.100,231.466 279.207 C 231.028 278.442,230.968 275.018,231.393 275.018 C 231.555 275.018,231.688 274.819,231.688 274.576 C 231.688 274.038,233.897 271.776,234.423 271.776 C 234.630 271.776,234.991 271.511,235.225 271.186 C 235.458 270.862,235.886 270.597,236.174 270.597 C 236.463 270.597,236.699 270.464,236.699 270.302 C 236.699 270.140,236.898 270.007,237.141 270.007 C 237.384 270.007,237.583 269.875,237.583 269.713 C 237.583 269.550,237.848 269.418,238.172 269.418 C 238.497 269.418,238.762 269.302,238.762 269.161 C 238.762 269.020,239.420 268.817,240.224 268.710 C 241.028 268.604,241.765 268.388,241.862 268.230 C 241.960 268.073,242.355 267.944,242.741 267.944 C 243.128 267.944,243.525 267.811,243.626 267.649 C 243.726 267.487,244.124 267.354,244.510 267.354 C 244.896 267.354,245.294 267.222,245.394 267.060 C 245.494 266.898,245.900 266.765,246.296 266.765 C 246.692 266.765,247.015 266.632,247.015 266.470 C 247.015 266.308,247.546 266.175,248.195 266.175 C 248.843 266.175,249.374 266.043,249.374 265.881 C 249.374 265.718,249.838 265.586,250.405 265.586 C 250.973 265.586,251.437 265.453,251.437 265.291 C 251.437 265.129,251.968 264.996,252.616 264.996 C 253.265 264.996,253.795 264.864,253.795 264.702 C 253.795 264.539,254.392 264.407,255.122 264.407 C 255.955 264.407,256.470 264.270,256.507 264.038 C 256.750 262.507,256.707 268.609,256.461 270.450 " stroke="none" fill="#044c9c" fill-rule="evenodd"></path><path id="path1" d="" stroke="none" fill="#084c9c" fill-rule="evenodd"></path><path id="path2" d="" stroke="none" fill="#084c9c" fill-rule="evenodd"></path><path id="path3" d="" stroke="none" fill="#084c9c" fill-rule="evenodd"></path><path id="path4" d="" stroke="none" fill="#084c9c" fill-rule="evenodd"></path></g></svg>