<?xml version="1.0" standalone="no"?>
<!DOCTYPE svg PUBLIC "-//W3C//DTD SVG 20010904//EN"
 "http://www.w3.org/TR/2001/REC-SVG-20010904/DTD/svg10.dtd">
<svg version="1.0" xmlns="http://www.w3.org/2000/svg"
 width="200.000000pt" height="189.000000pt" viewBox="0 0 200.000000 189.000000"
 preserveAspectRatio="xMidYMid meet">

<g transform="translate(0.000000,189.000000) scale(0.100000,-0.100000)"
fill="#000000" stroke="none">
<path d="M1269 1466 c-25 -7 -59 -22 -77 -34 -31 -23 -32 -23 -109 -7 -316 66
-614 -176 -614 -497 0 -149 44 -261 143 -364 230 -240 624 -199 804 82 71 111
98 272 65 401 -12 49 -11 54 8 81 31 44 42 81 42 138 0 138 -127 235 -262 200z
m93 -66 c45 -13 93 -66 102 -114 9 -50 -22 -119 -66 -146 -44 -27 -111 -26
-155 1 -99 62 -80 218 32 257 39 14 43 14 87 2z m-293 -41 l49 -10 -5 -58
c-14 -147 92 -253 236 -238 67 7 65 10 77 -93 13 -119 -40 -265 -130 -356 -98
-97 -251 -147 -383 -125 -244 41 -413 272 -374 509 43 253 286 424 530 371z"/>
<path d="M885 1131 c-147 -67 -181 -256 -67 -370 93 -93 228 -96 321 -8 114
109 88 302 -52 372 -62 31 -143 33 -202 6z"/>
</g>
</svg>
